M48
; DRILL file {KiCad 7.0.8} date Wed Jan 31 02:27:31 2024
; FORMAT={-:-/ absolute / metric / decimal}
; #@! TF.CreationDate,2024-01-31T02:27:31-05:00
; #@! TF.GenerationSoftware,Kicad,Pcbnew,7.0.8
; #@! TF.FileFunction,Plated,1,2,PTH
FMAT,2
METRIC
; #@! TA.AperFunction,Plated,PTH,ViaDrill
T1C0.300
; #@! TA.AperFunction,Plated,PTH,ComponentDrill
T2C0.400
; #@! TA.AperFunction,Plated,PTH,ViaDrill
T3C0.600
; #@! TA.AperFunction,Plated,PTH,ComponentDrill
T4C0.600
; #@! TA.AperFunction,Plated,PTH,ComponentDrill
T5C0.900
; #@! TA.AperFunction,Plated,PTH,ComponentDrill
T6C1.000
; #@! TA.AperFunction,Plated,PTH,ComponentDrill
T7C1.100
; #@! TA.AperFunction,Plated,PTH,ComponentDrill
T8C1.200
%
G90
G05
T1
X1.6Y9.0
X1.7Y16.5
X2.8Y7.6
X3.2Y31.4
X4.6Y21.0
X5.9Y25.2
X6.3Y1.6
X8.4Y30.0
X9.7Y17.0
X10.3Y13.6
X10.6Y28.5
X10.6Y21.6
X12.1Y5.1
X12.9Y26.1
X13.0Y25.0
X13.2Y23.6
X13.2Y21.9
X13.2Y19.5
X13.5Y53.0
X14.0Y40.8
X14.1Y32.8
X14.8Y39.0
X14.9Y53.0
X16.0Y40.8
X16.1Y28.7
X16.3Y53.0
X16.3Y17.3
X16.6Y38.7
X17.2Y18.0
X17.3Y32.462
X18.9Y34.262
X19.1Y21.6
X21.9Y6.1
X22.5Y39.5
X22.6Y30.1
X23.0Y26.6
X23.0Y24.8
X23.0Y4.0
X24.7Y53.619
X25.0Y43.2
X25.1Y48.5
X28.6Y53.4
X28.9Y49.6
X31.2Y53.4
X33.9Y1.8
X34.0Y53.4
X35.0Y8.8
X35.7Y4.3
X36.0Y43.4
X36.0Y41.1
X36.3Y16.0
X36.591Y12.7
X36.8Y53.4
X37.0Y51.3
X38.2Y39.6
X38.2Y9.4
X39.0Y12.4
X39.8Y16.6
X40.0Y42.9
X42.5Y43.5
X42.6Y24.0
X42.9Y5.1
X43.1Y45.3
X43.6Y8.6
X44.3Y35.8
X44.3Y34.5
X44.3Y29.4
X44.5Y33.2
X44.5Y32.0
X44.6Y28.2
X44.7Y26.9
X45.5Y22.9
X47.9Y45.6
X48.0Y5.5
X49.8Y9.9
X49.9Y42.9
X49.9Y40.4
X50.7Y11.7
X51.3Y33.2
X51.3Y32.3
X51.5Y29.4
X52.1Y9.9
X54.2Y2.4
X54.5Y23.3
X54.6Y11.4
X54.8Y36.9
X54.9Y30.7
X55.3Y16.7
X55.5Y5.1
X57.2Y32.8
X57.2Y2.4
X57.5Y21.3
X57.6Y23.3
X59.1Y19.9
X59.1Y5.2
X59.3Y26.9
X60.2Y36.5
X60.5Y21.4
X60.7Y32.6
X60.7Y2.4
X62.1Y51.6
X62.1Y44.7
X62.4Y5.2
X63.3Y2.4
X66.3Y47.1
X66.3Y44.7
X66.3Y41.9
X67.9Y43.2
X67.9Y40.3
X68.0Y46.0
X68.5Y13.9
X68.5Y11.1
X68.5Y8.3
T2
X30.9Y35.1
X30.9Y33.7
X31.6Y35.8
X31.6Y34.4
X31.6Y33.0
X32.3Y35.1
X32.3Y33.7
X33.0Y35.8
X33.0Y34.4
X33.0Y33.0
X33.7Y35.1
X33.7Y33.7
T3
X5.5Y13.8
X8.1Y10.5
X8.1Y5.7
X12.8Y1.8
X13.2Y8.0
X17.0Y6.1
X20.4Y15.9
X22.3Y23.0
X27.2Y40.85
X27.3Y17.3
X29.1Y14.0
X29.5Y15.5
X45.4Y17.6
T5
X41.8Y52.975
X41.8Y50.435
X42.9Y3.2
X45.44Y3.2
X47.4Y52.975
X47.4Y50.435
T6
X25.28Y20.1
X26.75Y7.532
X27.82Y20.1
X29.25Y7.532
X30.36Y20.1
X32.9Y20.1
X35.44Y20.1
X37.98Y20.1
X40.52Y20.1
X43.06Y20.1
X64.76Y17.9
X67.3Y17.9
T7
X4.56Y33.47
X7.1Y33.47
X9.64Y33.47
X15.15Y49.85
X15.15Y43.35
X19.65Y49.85
X19.65Y43.35
X52.75Y52.5
X52.75Y48.0
X52.75Y44.25
X52.75Y39.75
X59.2Y13.2
X59.2Y8.7
X59.25Y52.5
X59.25Y48.0
X59.25Y44.25
X59.25Y39.75
X65.7Y13.2
X65.7Y8.7
T8
X65.8Y36.2
X65.8Y32.7
X65.8Y26.6
X65.8Y23.1
T4
G00X3.65Y27.43
M15
G01X3.05Y27.43
M16
G05
G00X3.65Y18.79
M15
G01X3.05Y18.79
M16
G05
G00X8.08Y27.43
M15
G01X6.98Y27.43
M16
G05
G00X8.08Y18.79
M15
G01X6.98Y18.79
M16
G05
T0
M30
