%TF.GenerationSoftware,KiCad,Pcbnew,7.0.8*%
%TF.CreationDate,2024-01-31T02:26:52-05:00*%
%TF.ProjectId,AT01_no_ftdi,41543031-5f6e-46f5-9f66-7464692e6b69,rev?*%
%TF.SameCoordinates,PX6ea0500PY7735940*%
%TF.FileFunction,Other,User*%
%FSLAX46Y46*%
G04 Gerber Fmt 4.6, Leading zero omitted, Abs format (unit mm)*
G04 Created by KiCad (PCBNEW 7.0.8) date 2024-01-31 02:26:52*
%MOMM*%
%LPD*%
G01*
G04 APERTURE LIST*
%ADD10C,0.152400*%
%ADD11C,0.050000*%
G04 APERTURE END LIST*
D10*
%TO.C,U3*%
X34542400Y5845400D02*
X34542400Y7151000D01*
X37457600Y5845400D02*
X34542400Y5845400D01*
X37457600Y5845400D02*
X37457600Y7151000D01*
X34246000Y7151000D02*
X34246000Y10659000D01*
X34542400Y7151000D02*
X34246000Y7151000D01*
X37754000Y7151000D02*
X37457600Y7151000D01*
X34246000Y10659000D02*
X34542400Y10659000D01*
X37457600Y10659000D02*
X37754000Y10659000D01*
X37754000Y10659000D02*
X37754000Y7151000D01*
X34542400Y11964600D02*
X34542400Y10659000D01*
X34542400Y11964600D02*
X37457600Y11964600D01*
X37457600Y11964600D02*
X37457600Y10659000D01*
%TO.C,U2*%
X11382601Y15763600D02*
X11382601Y14656800D01*
X8517401Y15763600D02*
X11382601Y15763600D01*
X8517401Y15763600D02*
X8517401Y14656800D01*
X11651801Y14656800D02*
X11651801Y12523200D01*
X11382601Y14656800D02*
X11651801Y14656800D01*
X8248201Y14656800D02*
X8517401Y14656800D01*
X11651801Y12523200D02*
X11382601Y12523200D01*
X8517401Y12523200D02*
X8248201Y12523200D01*
X8248201Y12523200D02*
X8248201Y14656800D01*
X11382601Y11416400D02*
X11382601Y12523200D01*
X11382601Y11416400D02*
X8517401Y11416400D01*
X8517401Y11416400D02*
X8517401Y12523200D01*
%TO.C,U1*%
X26144155Y46514100D02*
X26144155Y47415800D01*
X26144155Y47415800D02*
X26144155Y47415800D01*
X26144155Y47415800D02*
X26144155Y51124200D01*
X26144155Y51124200D02*
X26144155Y51124200D01*
X26144155Y51124200D02*
X26144155Y52025900D01*
X26144155Y52025900D02*
X27045855Y52025900D01*
X27045855Y52025900D02*
X27045855Y52025900D01*
X27045855Y52025900D02*
X30754255Y52025900D01*
X30754255Y52025900D02*
X30754255Y52025900D01*
X30754255Y52025900D02*
X31655955Y52025900D01*
X31655955Y52025900D02*
X31655955Y51124200D01*
X31655955Y51124200D02*
X31655955Y51124200D01*
X31655955Y51124200D02*
X31655955Y47415800D01*
X31655955Y47415800D02*
X31655955Y47415800D01*
X31655955Y47415800D02*
X31655955Y46514100D01*
X31655955Y46514100D02*
X30754255Y46514100D01*
X30754255Y46514100D02*
X30754255Y46514100D01*
X30754255Y46514100D02*
X27045855Y46514100D01*
X27045855Y46514100D02*
X27045855Y46514100D01*
X27045855Y46514100D02*
X26144155Y46514100D01*
D11*
%TO.C,C7*%
X16320000Y33057500D02*
X16320000Y36817500D01*
X18280000Y33057500D02*
X16320000Y33057500D01*
X16320000Y36817500D02*
X18280000Y36817500D01*
X18280000Y36817500D02*
X18280000Y33057500D01*
%TO.C,J6*%
X62960000Y19700000D02*
X62960000Y16100000D01*
X69110000Y19700000D02*
X62960000Y19700000D01*
X62960000Y16100000D02*
X69110000Y16100000D01*
X69110000Y16100000D02*
X69110000Y19700000D01*
%TO.C,D2*%
X12600000Y22350000D02*
X11200000Y22350000D01*
X11200000Y24850000D02*
X12600000Y24850000D01*
X12600000Y24850000D02*
X12600000Y22350000D01*
X11200000Y22350000D02*
X11200000Y24850000D01*
%TO.C,R2*%
X15850000Y16630000D02*
X19150000Y16630000D01*
X19150000Y15170000D02*
X15850000Y15170000D01*
X15850000Y15170000D02*
X15850000Y16630000D01*
X19150000Y16630000D02*
X19150000Y15170000D01*
%TO.C,D12*%
X10900000Y28050000D02*
X12300000Y28050000D01*
X12300000Y25550000D02*
X10900000Y25550000D01*
X10900000Y25550000D02*
X10900000Y28050000D01*
X12300000Y28050000D02*
X12300000Y25550000D01*
%TO.C,D3*%
X11620000Y19850000D02*
X12180000Y19850000D01*
X12180000Y19850000D02*
X12180000Y20050000D01*
X11450000Y21150000D02*
X11620000Y21150000D01*
X11620000Y21150000D02*
X11620000Y21350000D01*
X12180000Y21150000D02*
X12350000Y21150000D01*
X11620000Y20050000D02*
X11620000Y19850000D01*
X11620000Y20050000D02*
X11450000Y20050000D01*
X12180000Y21350000D02*
X12180000Y21150000D01*
X12350000Y20050000D02*
X12180000Y20050000D01*
X11450000Y20050000D02*
X11450000Y21150000D01*
X12350000Y21150000D02*
X12350000Y20050000D01*
X11620000Y21350000D02*
X12180000Y21350000D01*
%TO.C,R8*%
X36730000Y47650000D02*
X36730000Y44350000D01*
X35270000Y47650000D02*
X36730000Y47650000D01*
X36730000Y44350000D02*
X35270000Y44350000D01*
X35270000Y44350000D02*
X35270000Y47650000D01*
%TO.C,C15*%
X34070000Y13450000D02*
X34070000Y16750000D01*
X35530000Y13450000D02*
X34070000Y13450000D01*
X34070000Y16750000D02*
X35530000Y16750000D01*
X35530000Y16750000D02*
X35530000Y13450000D01*
%TO.C,C4*%
X33270000Y47587500D02*
X33270000Y50887500D01*
X34730000Y47587500D02*
X33270000Y47587500D01*
X33270000Y50887500D02*
X34730000Y50887500D01*
X34730000Y50887500D02*
X34730000Y47587500D01*
%TO.C,D5*%
X44050000Y54125000D02*
X39550000Y54125000D01*
X39550000Y54125000D02*
X39550000Y49275000D01*
X44050000Y49275000D02*
X44050000Y54125000D01*
X39550000Y49275000D02*
X44050000Y49275000D01*
%TO.C,SW1*%
X51250000Y54000000D02*
X51500000Y54000000D01*
X51250000Y53750000D02*
X51250000Y54000000D01*
X51250000Y46750000D02*
X51250000Y53750000D01*
X51250000Y46750000D02*
X51250000Y46500000D01*
X51250000Y46500000D02*
X51500000Y46500000D01*
X51500000Y54000000D02*
X60500000Y54000000D01*
X60500000Y54000000D02*
X60750000Y54000000D01*
X60500000Y46500000D02*
X51500000Y46500000D01*
X60500000Y46500000D02*
X60750000Y46500000D01*
X60750000Y54000000D02*
X60750000Y53750000D01*
X60750000Y53750000D02*
X60750000Y46750000D01*
X60750000Y46500000D02*
X60750000Y46750000D01*
%TO.C,H3*%
X5000000Y3000000D02*
G75*
G03*
X5000000Y3000000I-2000000J0D01*
G01*
%TO.C,C10*%
X53730000Y37650000D02*
X53730000Y34350000D01*
X52270000Y37650000D02*
X53730000Y37650000D01*
X53730000Y34350000D02*
X52270000Y34350000D01*
X52270000Y34350000D02*
X52270000Y37650000D01*
%TO.C,J2*%
X9670000Y28430000D02*
X250000Y28430000D01*
X9670000Y28430000D02*
X9670000Y17790000D01*
X250000Y28430000D02*
X250000Y17790000D01*
X9670000Y17790000D02*
X250000Y17790000D01*
D10*
%TO.C,K1*%
X22095100Y17492500D02*
X24127100Y17492500D01*
X22095100Y10507500D02*
X22095100Y17492500D01*
X22095100Y10507500D02*
X24127100Y10507500D01*
X24127100Y17937000D02*
X31289900Y17937000D01*
X24127100Y17492500D02*
X24127100Y17937000D01*
X24127100Y10063000D02*
X24127100Y10507500D01*
X31289900Y17937000D02*
X31289900Y17492500D01*
X31289900Y10507500D02*
X31289900Y10063000D01*
X31289900Y10063000D02*
X24127100Y10063000D01*
X33321900Y17492500D02*
X31289900Y17492500D01*
X33321900Y17492500D02*
X33321900Y10507500D01*
X33321900Y10507500D02*
X31289900Y10507500D01*
D11*
%TO.C,R1*%
X61370000Y47250000D02*
X61370000Y50550000D01*
X62830000Y47250000D02*
X61370000Y47250000D01*
X61370000Y50550000D02*
X62830000Y50550000D01*
X62830000Y50550000D02*
X62830000Y47250000D01*
D10*
%TO.C,L1*%
X21151200Y14551200D02*
X21151200Y8048800D01*
X14648800Y14551200D02*
X21151200Y14551200D01*
X21151200Y8048800D02*
X14648800Y8048800D01*
X14648800Y8048800D02*
X14648800Y14551200D01*
D11*
%TO.C,R5*%
X15350000Y30730000D02*
X18650000Y30730000D01*
X15350000Y29270000D02*
X15350000Y30730000D01*
X18650000Y30730000D02*
X18650000Y29270000D01*
X18650000Y29270000D02*
X15350000Y29270000D01*
%TO.C,R15*%
X11270000Y9800000D02*
X11270000Y7600000D01*
X10330000Y9800000D02*
X11270000Y9800000D01*
X11270000Y7600000D02*
X10330000Y7600000D01*
X10330000Y7600000D02*
X10330000Y9800000D01*
%TO.C,R4*%
X20730000Y28650000D02*
X20730000Y25350000D01*
X19270000Y28650000D02*
X20730000Y28650000D01*
X20730000Y25350000D02*
X19270000Y25350000D01*
X19270000Y25350000D02*
X19270000Y28650000D01*
%TO.C,C17*%
X21130000Y36750000D02*
X21130000Y33450000D01*
X19670000Y36750000D02*
X21130000Y36750000D01*
X21130000Y33450000D02*
X19670000Y33450000D01*
X19670000Y33450000D02*
X19670000Y36750000D01*
%TO.C,D9*%
X22300000Y1350000D02*
X22300000Y3650000D01*
X22300000Y1350000D02*
X17900000Y1350000D01*
X17900000Y1350000D02*
X17900000Y3650000D01*
X17900000Y3650000D02*
X22300000Y3650000D01*
%TO.C,R14*%
X5750000Y15770000D02*
X2450000Y15770000D01*
X5750000Y17230000D02*
X5750000Y15770000D01*
X2450000Y15770000D02*
X2450000Y17230000D01*
X2450000Y17230000D02*
X5750000Y17230000D01*
%TO.C,H2*%
X69000000Y3000000D02*
G75*
G03*
X69000000Y3000000I-2000000J0D01*
G01*
%TO.C,J4*%
X61900000Y30100000D02*
X69900000Y30100000D01*
X69900000Y30100000D02*
X69900000Y38800000D01*
X61900000Y38800000D02*
X61900000Y30100000D01*
X69900000Y38800000D02*
X61900000Y38800000D01*
%TO.C,U6*%
X24050000Y23410000D02*
X24050000Y43560000D01*
X24050000Y23410000D02*
X43550000Y23410000D01*
X43550000Y43560000D02*
X24050000Y43560000D01*
X43550000Y43560000D02*
X43550000Y23410000D01*
%TO.C,R11*%
X45270000Y37262500D02*
X45270000Y40562500D01*
X46730000Y37262500D02*
X45270000Y37262500D01*
X45270000Y40562500D02*
X46730000Y40562500D01*
X46730000Y40562500D02*
X46730000Y37262500D01*
%TO.C,R13*%
X5750000Y29270000D02*
X2450000Y29270000D01*
X5750000Y30730000D02*
X5750000Y29270000D01*
X2450000Y29270000D02*
X2450000Y30730000D01*
X2450000Y30730000D02*
X5750000Y30730000D01*
%TO.C,C13*%
X17950000Y6830000D02*
X21250000Y6830000D01*
X17950000Y5370000D02*
X17950000Y6830000D01*
X21250000Y6830000D02*
X21250000Y5370000D01*
X21250000Y5370000D02*
X17950000Y5370000D01*
%TO.C,C18*%
X20750000Y37970000D02*
X17450000Y37970000D01*
X20750000Y39430000D02*
X20750000Y37970000D01*
X17450000Y37970000D02*
X17450000Y39430000D01*
X17450000Y39430000D02*
X20750000Y39430000D01*
%TO.C,C5*%
X12650000Y29270000D02*
X9350000Y29270000D01*
X12650000Y30730000D02*
X12650000Y29270000D01*
X9350000Y29270000D02*
X9350000Y30730000D01*
X9350000Y30730000D02*
X12650000Y30730000D01*
%TO.C,D1*%
X17750000Y26500000D02*
X17750000Y19500000D01*
X14250000Y26500000D02*
X17750000Y26500000D01*
X17750000Y19500000D02*
X14250000Y19500000D01*
X14250000Y19500000D02*
X14250000Y26500000D01*
%TO.C,R18*%
X39330000Y4450000D02*
X39330000Y1150000D01*
X37870000Y4450000D02*
X39330000Y4450000D01*
X39330000Y1150000D02*
X37870000Y1150000D01*
X37870000Y1150000D02*
X37870000Y4450000D01*
%TO.C,SW2*%
X57700000Y14700000D02*
X57950000Y14700000D01*
X57700000Y14450000D02*
X57700000Y14700000D01*
X57700000Y7450000D02*
X57700000Y14450000D01*
X57700000Y7450000D02*
X57700000Y7200000D01*
X57700000Y7200000D02*
X57950000Y7200000D01*
X57950000Y14700000D02*
X66950000Y14700000D01*
X66950000Y14700000D02*
X67200000Y14700000D01*
X66950000Y7200000D02*
X57950000Y7200000D01*
X66950000Y7200000D02*
X67200000Y7200000D01*
X67200000Y14700000D02*
X67200000Y14450000D01*
X67200000Y14450000D02*
X67200000Y7450000D01*
X67200000Y7200000D02*
X67200000Y7450000D01*
%TO.C,J3*%
X44860000Y21900000D02*
X23510000Y21900000D01*
X23510000Y21900000D02*
X23510000Y18300000D01*
X44860000Y18300000D02*
X44860000Y21900000D01*
X23510000Y18300000D02*
X44860000Y18300000D01*
%TO.C,R10*%
X48650000Y35270000D02*
X45350000Y35270000D01*
X48650000Y36730000D02*
X48650000Y35270000D01*
X45350000Y35270000D02*
X45350000Y36730000D01*
X45350000Y36730000D02*
X48650000Y36730000D01*
%TO.C,C8*%
X12150000Y18730000D02*
X15450000Y18730000D01*
X12150000Y17270000D02*
X12150000Y18730000D01*
X15450000Y18730000D02*
X15450000Y17270000D01*
X15450000Y17270000D02*
X12150000Y17270000D01*
%TO.C,R6*%
X62830000Y43750000D02*
X62830000Y40450000D01*
X61370000Y43750000D02*
X62830000Y43750000D01*
X62830000Y40450000D02*
X61370000Y40450000D01*
X61370000Y40450000D02*
X61370000Y43750000D01*
%TO.C,U5*%
X59850000Y28250000D02*
X59850000Y33750000D01*
X59850000Y33750000D02*
X52150000Y33750000D01*
X52150000Y28250000D02*
X59850000Y28250000D01*
X52150000Y33750000D02*
X52150000Y28250000D01*
%TO.C,C1*%
X23970000Y49750000D02*
X23970000Y53050000D01*
X25430000Y49750000D02*
X23970000Y49750000D01*
X23970000Y53050000D02*
X25430000Y53050000D01*
X25430000Y53050000D02*
X25430000Y49750000D01*
%TO.C,R16*%
X56870000Y24050000D02*
X56870000Y27350000D01*
X58330000Y24050000D02*
X56870000Y24050000D01*
X56870000Y27350000D02*
X58330000Y27350000D01*
X58330000Y27350000D02*
X58330000Y24050000D01*
%TO.C,R7*%
X40730000Y47650000D02*
X40730000Y44350000D01*
X39270000Y47650000D02*
X40730000Y47650000D01*
X40730000Y44350000D02*
X39270000Y44350000D01*
X39270000Y44350000D02*
X39270000Y47650000D01*
%TO.C,C11*%
X53770000Y24050000D02*
X53770000Y27350000D01*
X55230000Y24050000D02*
X53770000Y24050000D01*
X53770000Y27350000D02*
X55230000Y27350000D01*
X55230000Y27350000D02*
X55230000Y24050000D01*
%TO.C,C2*%
X56830000Y13950000D02*
X56830000Y10650000D01*
X55370000Y13950000D02*
X56830000Y13950000D01*
X56830000Y10650000D02*
X55370000Y10650000D01*
X55370000Y10650000D02*
X55370000Y13950000D01*
%TO.C,C9*%
X58650000Y34370000D02*
X55350000Y34370000D01*
X58650000Y35830000D02*
X58650000Y34370000D01*
X55350000Y34370000D02*
X55350000Y35830000D01*
X55350000Y35830000D02*
X58650000Y35830000D01*
%TO.C,SW3*%
X21150000Y51350000D02*
X21150000Y51100000D01*
X20900000Y51350000D02*
X21150000Y51350000D01*
X13900000Y51350000D02*
X20900000Y51350000D01*
X13900000Y51350000D02*
X13650000Y51350000D01*
X13650000Y51350000D02*
X13650000Y51100000D01*
X21150000Y51100000D02*
X21150000Y42100000D01*
X21150000Y42100000D02*
X21150000Y41850000D01*
X13650000Y42100000D02*
X13650000Y51100000D01*
X13650000Y42100000D02*
X13650000Y41850000D01*
X21150000Y41850000D02*
X20900000Y41850000D01*
X20900000Y41850000D02*
X13900000Y41850000D01*
X13650000Y41850000D02*
X13900000Y41850000D01*
%TO.C,C12*%
X50750000Y22400000D02*
X48650000Y22400000D01*
X48650000Y22400000D02*
X48650000Y21150000D01*
X52100000Y21150000D02*
X50750000Y21150000D01*
X52100000Y21150000D02*
X53250000Y20000000D01*
X50750000Y21150000D02*
X50750000Y22400000D01*
X48650000Y21150000D02*
X47300000Y21150000D01*
X47300000Y21150000D02*
X46150000Y20000000D01*
X53250000Y20000000D02*
X53250000Y14050000D01*
X46150000Y20000000D02*
X46150000Y14050000D01*
X53250000Y14050000D02*
X50750000Y14050000D01*
X50750000Y14050000D02*
X50750000Y12800000D01*
X48650000Y14050000D02*
X46150000Y14050000D01*
X50750000Y12800000D02*
X48650000Y12800000D01*
X48650000Y12800000D02*
X48650000Y14050000D01*
%TO.C,D8*%
X49750000Y33500000D02*
X49750000Y26500000D01*
X46250000Y33500000D02*
X49750000Y33500000D01*
X49750000Y26500000D02*
X46250000Y26500000D01*
X46250000Y26500000D02*
X46250000Y33500000D01*
%TO.C,D10*%
X41750000Y5450000D02*
X41750000Y950000D01*
X41750000Y950000D02*
X46600000Y950000D01*
X46600000Y5450000D02*
X41750000Y5450000D01*
X46600000Y950000D02*
X46600000Y5450000D01*
%TO.C,R3*%
X21770000Y50450000D02*
X21770000Y53750000D01*
X23230000Y50450000D02*
X21770000Y50450000D01*
X21770000Y53750000D02*
X23230000Y53750000D01*
X23230000Y53750000D02*
X23230000Y50450000D01*
%TO.C,R9*%
X18370000Y17250000D02*
X18370000Y20550000D01*
X19830000Y17250000D02*
X18370000Y17250000D01*
X18370000Y20550000D02*
X19830000Y20550000D01*
X19830000Y20550000D02*
X19830000Y17250000D01*
%TO.C,C20*%
X14830000Y36787500D02*
X14830000Y33487500D01*
X13370000Y36787500D02*
X14830000Y36787500D01*
X14830000Y33487500D02*
X13370000Y33487500D01*
X13370000Y33487500D02*
X13370000Y36787500D01*
%TO.C,H1*%
X69000000Y52000000D02*
G75*
G03*
X69000000Y52000000I-2000000J0D01*
G01*
%TO.C,C19*%
X21730000Y32650000D02*
X21730000Y29350000D01*
X20270000Y32650000D02*
X21730000Y32650000D01*
X21730000Y29350000D02*
X20270000Y29350000D01*
X20270000Y29350000D02*
X20270000Y32650000D01*
%TO.C,Q2*%
X39595000Y13200000D02*
X39595000Y7800000D01*
X39595000Y13200000D02*
X47005000Y13200000D01*
X39595000Y7800000D02*
X47005000Y7800000D01*
X47005000Y13200000D02*
X47005000Y7800000D01*
%TO.C,U4*%
X1850000Y53180000D02*
X1850000Y32220000D01*
X1850000Y32220000D02*
X12350000Y32220000D01*
X12350000Y53180000D02*
X1850000Y53180000D01*
X12350000Y32220000D02*
X12350000Y53180000D01*
%TO.C,J1*%
X32250000Y332500D02*
X32250000Y9532500D01*
X32250000Y9532500D02*
X23750000Y9532500D01*
X23750000Y332500D02*
X32250000Y332500D01*
X23750000Y9532500D02*
X23750000Y332500D01*
%TO.C,C3*%
X20350000Y52270000D02*
X17050000Y52270000D01*
X20350000Y53730000D02*
X20350000Y52270000D01*
X17050000Y52270000D02*
X17050000Y53730000D01*
X17050000Y53730000D02*
X20350000Y53730000D01*
%TO.C,R12*%
X11530000Y6450000D02*
X11530000Y3150000D01*
X10070000Y6450000D02*
X11530000Y6450000D01*
X11530000Y3150000D02*
X10070000Y3150000D01*
X10070000Y3150000D02*
X10070000Y6450000D01*
%TO.C,SW4*%
X51250000Y45750000D02*
X51500000Y45750000D01*
X51250000Y45500000D02*
X51250000Y45750000D01*
X51250000Y38500000D02*
X51250000Y45500000D01*
X51250000Y38500000D02*
X51250000Y38250000D01*
X51250000Y38250000D02*
X51500000Y38250000D01*
X51500000Y45750000D02*
X60500000Y45750000D01*
X60500000Y45750000D02*
X60750000Y45750000D01*
X60500000Y38250000D02*
X51500000Y38250000D01*
X60500000Y38250000D02*
X60750000Y38250000D01*
X60750000Y45750000D02*
X60750000Y45500000D01*
X60750000Y45500000D02*
X60750000Y38500000D01*
X60750000Y38250000D02*
X60750000Y38500000D01*
%TO.C,C14*%
X48470000Y1387500D02*
X48470000Y4687500D01*
X49930000Y1387500D02*
X48470000Y1387500D01*
X48470000Y4687500D02*
X49930000Y4687500D01*
X49930000Y4687500D02*
X49930000Y1387500D01*
%TO.C,R17*%
X52750000Y6170000D02*
X49450000Y6170000D01*
X52750000Y7630000D02*
X52750000Y6170000D01*
X49450000Y6170000D02*
X49450000Y7630000D01*
X49450000Y7630000D02*
X52750000Y7630000D01*
%TO.C,D4*%
X49650000Y54125000D02*
X45150000Y54125000D01*
X45150000Y54125000D02*
X45150000Y49275000D01*
X49650000Y49275000D02*
X49650000Y54125000D01*
X45150000Y49275000D02*
X49650000Y49275000D01*
%TO.C,J5*%
X61900000Y20500000D02*
X69900000Y20500000D01*
X69900000Y20500000D02*
X69900000Y29200000D01*
X61900000Y29200000D02*
X61900000Y20500000D01*
X69900000Y29200000D02*
X61900000Y29200000D01*
%TO.C,C16*%
X37350000Y15730000D02*
X40650000Y15730000D01*
X37350000Y14270000D02*
X37350000Y15730000D01*
X40650000Y15730000D02*
X40650000Y14270000D01*
X40650000Y14270000D02*
X37350000Y14270000D01*
%TO.C,D7*%
X2200000Y12950000D02*
X2200000Y10650000D01*
X2200000Y12950000D02*
X6600000Y12950000D01*
X6600000Y12950000D02*
X6600000Y10650000D01*
X6600000Y10650000D02*
X2200000Y10650000D01*
%TD*%
M02*
