%TF.GenerationSoftware,KiCad,Pcbnew,7.0.8*%
%TF.CreationDate,2024-01-31T02:26:52-05:00*%
%TF.ProjectId,AT01_no_ftdi,41543031-5f6e-46f5-9f66-7464692e6b69,rev?*%
%TF.SameCoordinates,PX6ea0500PY7735940*%
%TF.FileFunction,Soldermask,Top*%
%TF.FilePolarity,Negative*%
%FSLAX46Y46*%
G04 Gerber Fmt 4.6, Leading zero omitted, Abs format (unit mm)*
G04 Created by KiCad (PCBNEW 7.0.8) date 2024-01-31 02:26:52*
%MOMM*%
%LPD*%
G01*
G04 APERTURE LIST*
G04 Aperture macros list*
%AMRoundRect*
0 Rectangle with rounded corners*
0 $1 Rounding radius*
0 $2 $3 $4 $5 $6 $7 $8 $9 X,Y pos of 4 corners*
0 Add a 4 corners polygon primitive as box body*
4,1,4,$2,$3,$4,$5,$6,$7,$8,$9,$2,$3,0*
0 Add four circle primitives for the rounded corners*
1,1,$1+$1,$2,$3*
1,1,$1+$1,$4,$5*
1,1,$1+$1,$6,$7*
1,1,$1+$1,$8,$9*
0 Add four rect primitives between the rounded corners*
20,1,$1+$1,$2,$3,$4,$5,0*
20,1,$1+$1,$4,$5,$6,$7,0*
20,1,$1+$1,$6,$7,$8,$9,0*
20,1,$1+$1,$8,$9,$2,$3,0*%
G04 Aperture macros list end*
%ADD10R,0.457200X1.524000*%
%ADD11O,0.457200X1.219200*%
%ADD12R,0.457200X1.219200*%
%ADD13R,0.711200X0.660400*%
%ADD14R,0.660400X0.711200*%
%ADD15RoundRect,0.250000X-0.475000X0.337500X-0.475000X-0.337500X0.475000X-0.337500X0.475000X0.337500X0*%
%ADD16R,1.700000X1.700000*%
%ADD17O,1.700000X1.700000*%
%ADD18RoundRect,0.150000X-0.200000X0.150000X-0.200000X-0.150000X0.200000X-0.150000X0.200000X0.150000X0*%
%ADD19RoundRect,0.237500X-0.250000X-0.237500X0.250000X-0.237500X0.250000X0.237500X-0.250000X0.237500X0*%
%ADD20RoundRect,0.150000X0.200000X-0.150000X0.200000X0.150000X-0.200000X0.150000X-0.200000X-0.150000X0*%
%ADD21RoundRect,0.062500X-0.062500X0.117500X-0.062500X-0.117500X0.062500X-0.117500X0.062500X0.117500X0*%
%ADD22RoundRect,0.237500X-0.237500X0.250000X-0.237500X-0.250000X0.237500X-0.250000X0.237500X0.250000X0*%
%ADD23RoundRect,0.237500X0.237500X-0.300000X0.237500X0.300000X-0.237500X0.300000X-0.237500X-0.300000X0*%
%ADD24R,1.800000X1.800000*%
%ADD25C,1.800000*%
%ADD26C,2.000000*%
%ADD27C,2.200000*%
%ADD28RoundRect,0.237500X-0.237500X0.300000X-0.237500X-0.300000X0.237500X-0.300000X0.237500X0.300000X0*%
%ADD29C,0.650000*%
%ADD30R,1.450000X0.600000*%
%ADD31R,1.450000X0.300000*%
%ADD32O,2.100000X1.000000*%
%ADD33O,1.600000X1.000000*%
%ADD34R,1.701800X1.397000*%
%ADD35RoundRect,0.237500X0.237500X-0.250000X0.237500X0.250000X-0.237500X0.250000X-0.237500X-0.250000X0*%
%ADD36R,5.511800X1.752600*%
%ADD37RoundRect,0.160000X-0.160000X0.197500X-0.160000X-0.197500X0.160000X-0.197500X0.160000X0.197500X0*%
%ADD38RoundRect,0.250000X0.300000X0.300000X-0.300000X0.300000X-0.300000X-0.300000X0.300000X-0.300000X0*%
%ADD39RoundRect,0.237500X0.250000X0.237500X-0.250000X0.237500X-0.250000X-0.237500X0.250000X-0.237500X0*%
%ADD40R,2.400000X2.400000*%
%ADD41C,2.400000*%
%ADD42R,1.500000X0.900000*%
%ADD43R,0.900000X1.500000*%
%ADD44C,0.800000*%
%ADD45R,3.900000X3.900000*%
%ADD46RoundRect,0.237500X-0.300000X-0.237500X0.300000X-0.237500X0.300000X0.237500X-0.300000X0.237500X0*%
%ADD47RoundRect,0.237500X0.300000X0.237500X-0.300000X0.237500X-0.300000X-0.237500X0.300000X-0.237500X0*%
%ADD48RoundRect,0.250000X-0.650000X1.000000X-0.650000X-1.000000X0.650000X-1.000000X0.650000X1.000000X0*%
%ADD49RoundRect,0.100000X0.637500X0.100000X-0.637500X0.100000X-0.637500X-0.100000X0.637500X-0.100000X0*%
%ADD50RoundRect,0.250000X-0.550000X1.500000X-0.550000X-1.500000X0.550000X-1.500000X0.550000X1.500000X0*%
%ADD51RoundRect,0.144000X-0.788000X-0.258000X0.788000X-0.258000X0.788000X0.258000X-0.788000X0.258000X0*%
%ADD52O,3.500000X3.500000*%
%ADD53R,1.905000X2.000000*%
%ADD54O,1.905000X2.000000*%
%ADD55RoundRect,0.250000X0.600000X0.750000X-0.600000X0.750000X-0.600000X-0.750000X0.600000X-0.750000X0*%
%ADD56O,1.700000X2.000000*%
%ADD57RoundRect,0.250000X-0.300000X-0.300000X0.300000X-0.300000X0.300000X0.300000X-0.300000X0.300000X0*%
G04 APERTURE END LIST*
D10*
%TO.C,U3*%
X35025001Y6861400D03*
X35674999Y6861400D03*
X36325001Y6861400D03*
X36974999Y6861400D03*
X36974999Y10948600D03*
X36325001Y10948600D03*
X35674999Y10948600D03*
X35025001Y10948600D03*
%TD*%
D11*
%TO.C,U2*%
X9000000Y14900000D03*
X10900002Y14900000D03*
X10900002Y12280000D03*
X9950001Y12280000D03*
D12*
X9000000Y12280000D03*
%TD*%
D13*
%TO.C,U1*%
X26800110Y50540000D03*
X26800110Y49270000D03*
X26800110Y48000000D03*
D14*
X27630055Y47170002D03*
X28900055Y47170002D03*
X30170055Y47170002D03*
D13*
X31000000Y48000000D03*
X31000000Y49270000D03*
X31000000Y50540000D03*
D14*
X30170055Y51369998D03*
X28900055Y51369998D03*
X27630055Y51369998D03*
%TD*%
D15*
%TO.C,C7*%
X17300000Y35975000D03*
X17300000Y33900000D03*
%TD*%
D16*
%TO.C,J6*%
X64760000Y17900000D03*
D17*
X67300000Y17900000D03*
%TD*%
D18*
%TO.C,D2*%
X11900000Y22900000D03*
X11900000Y24300000D03*
%TD*%
D19*
%TO.C,R2*%
X16587500Y15900000D03*
X18412500Y15900000D03*
%TD*%
D20*
%TO.C,D12*%
X11600000Y27500000D03*
X11600000Y26100000D03*
%TD*%
D21*
%TO.C,D3*%
X11900000Y20180000D03*
X11900000Y21020000D03*
%TD*%
D22*
%TO.C,R8*%
X36000000Y46912500D03*
X36000000Y45087500D03*
%TD*%
D23*
%TO.C,C15*%
X34800000Y14237500D03*
X34800000Y15962500D03*
%TD*%
%TO.C,C4*%
X34000000Y48375000D03*
X34000000Y50100000D03*
%TD*%
D24*
%TO.C,D5*%
X41800000Y52975000D03*
D25*
X41800000Y50435000D03*
%TD*%
D26*
%TO.C,SW1*%
X52750000Y52500000D03*
X59250000Y52500000D03*
X52750000Y48000000D03*
X59250000Y48000000D03*
%TD*%
D27*
%TO.C,H3*%
X3000000Y3000000D03*
%TD*%
D28*
%TO.C,C10*%
X53000000Y36862500D03*
X53000000Y35137500D03*
%TD*%
D29*
%TO.C,J2*%
X7000000Y26000000D03*
X7000000Y20220000D03*
D30*
X8445000Y26360000D03*
X8445000Y25560000D03*
D31*
X8445000Y24360000D03*
X8445000Y23360000D03*
X8445000Y22860000D03*
X8445000Y21860000D03*
D30*
X8445000Y20660000D03*
X8445000Y19860000D03*
X8445000Y19860000D03*
X8445000Y20660000D03*
D31*
X8445000Y21360000D03*
X8445000Y22360000D03*
X8445000Y23860000D03*
X8445000Y24860000D03*
D30*
X8445000Y25560000D03*
X8445000Y26360000D03*
D32*
X7530000Y27430000D03*
D33*
X3350000Y27430000D03*
D32*
X7530000Y18790000D03*
D33*
X3350000Y18790000D03*
%TD*%
D34*
%TO.C,K1*%
X23200000Y11460000D03*
X23200000Y14000000D03*
X23200000Y16540000D03*
X32217000Y16540000D03*
X32217000Y14000000D03*
X32217000Y11460000D03*
%TD*%
D35*
%TO.C,R1*%
X62100000Y47987500D03*
X62100000Y49812500D03*
%TD*%
D36*
%TO.C,L1*%
X17900000Y13175000D03*
X17900000Y9425000D03*
%TD*%
D19*
%TO.C,R5*%
X16087500Y30000000D03*
X17912500Y30000000D03*
%TD*%
D37*
%TO.C,R15*%
X10800000Y9297500D03*
X10800000Y8102500D03*
%TD*%
D22*
%TO.C,R4*%
X20000000Y27912500D03*
X20000000Y26087500D03*
%TD*%
D28*
%TO.C,C17*%
X20400000Y35962500D03*
X20400000Y34237500D03*
%TD*%
D38*
%TO.C,D9*%
X21500000Y2500000D03*
X18700000Y2500000D03*
%TD*%
D39*
%TO.C,R14*%
X5012500Y16500000D03*
X3187500Y16500000D03*
%TD*%
D27*
%TO.C,H2*%
X67000000Y3000000D03*
%TD*%
D40*
%TO.C,J4*%
X65800000Y32700000D03*
D41*
X65800000Y36200000D03*
%TD*%
D42*
%TO.C,U6*%
X25050000Y42120000D03*
X25050000Y40850000D03*
X25050000Y39580000D03*
X25050000Y38310000D03*
X25050000Y37040000D03*
X25050000Y35770000D03*
X25050000Y34500000D03*
X25050000Y33230000D03*
X25050000Y31960000D03*
X25050000Y30690000D03*
X25050000Y29420000D03*
X25050000Y28150000D03*
X25050000Y26880000D03*
X25050000Y25610000D03*
D43*
X26815000Y24360000D03*
X28085000Y24360000D03*
X29355000Y24360000D03*
X30625000Y24360000D03*
X31895000Y24360000D03*
X33165000Y24360000D03*
X34435000Y24360000D03*
X35705000Y24360000D03*
X36975000Y24360000D03*
X38245000Y24360000D03*
X39515000Y24360000D03*
X40785000Y24360000D03*
D42*
X42550000Y25610000D03*
X42550000Y26880000D03*
X42550000Y28150000D03*
X42550000Y29420000D03*
X42550000Y30690000D03*
X42550000Y31960000D03*
X42550000Y33230000D03*
X42550000Y34500000D03*
X42550000Y35770000D03*
X42550000Y37040000D03*
X42550000Y38310000D03*
X42550000Y39580000D03*
X42550000Y40850000D03*
X42550000Y42120000D03*
D44*
X30900000Y35100000D03*
X30900000Y33700000D03*
X31600000Y35800000D03*
X31600000Y34400000D03*
X31600000Y33000000D03*
X32300000Y35100000D03*
D45*
X32300000Y34400000D03*
D44*
X32300000Y33700000D03*
X33000000Y35800000D03*
X33000000Y34400000D03*
X33000000Y33000000D03*
X33700000Y35100000D03*
X33700000Y33700000D03*
%TD*%
D35*
%TO.C,R11*%
X46000000Y38000000D03*
X46000000Y39825000D03*
%TD*%
D39*
%TO.C,R13*%
X5012500Y30000000D03*
X3187500Y30000000D03*
%TD*%
D46*
%TO.C,C13*%
X18737500Y6100000D03*
X20462500Y6100000D03*
%TD*%
D47*
%TO.C,C18*%
X19962500Y38700000D03*
X18237500Y38700000D03*
%TD*%
%TO.C,C5*%
X11862500Y30000000D03*
X10137500Y30000000D03*
%TD*%
D48*
%TO.C,D1*%
X16000000Y25000000D03*
X16000000Y21000000D03*
%TD*%
D22*
%TO.C,R18*%
X38600000Y3712500D03*
X38600000Y1887500D03*
%TD*%
D26*
%TO.C,SW2*%
X59200000Y13200000D03*
X65700000Y13200000D03*
X59200000Y8700000D03*
X65700000Y8700000D03*
%TD*%
D16*
%TO.C,J3*%
X43060000Y20100000D03*
D17*
X40520000Y20100000D03*
X37980000Y20100000D03*
X35440000Y20100000D03*
X32900000Y20100000D03*
X30360000Y20100000D03*
X27820000Y20100000D03*
X25280000Y20100000D03*
%TD*%
D39*
%TO.C,R10*%
X47912500Y36000000D03*
X46087500Y36000000D03*
%TD*%
D46*
%TO.C,C8*%
X12937500Y18000000D03*
X14662500Y18000000D03*
%TD*%
D22*
%TO.C,R6*%
X62100000Y43012500D03*
X62100000Y41187500D03*
%TD*%
D49*
%TO.C,U5*%
X58862500Y28725000D03*
X58862500Y29375000D03*
X58862500Y30025000D03*
X58862500Y30675000D03*
X58862500Y31325000D03*
X58862500Y31975000D03*
X58862500Y32625000D03*
X58862500Y33275000D03*
X53137500Y33275000D03*
X53137500Y32625000D03*
X53137500Y31975000D03*
X53137500Y31325000D03*
X53137500Y30675000D03*
X53137500Y30025000D03*
X53137500Y29375000D03*
X53137500Y28725000D03*
%TD*%
D23*
%TO.C,C1*%
X24700000Y50537500D03*
X24700000Y52262500D03*
%TD*%
D35*
%TO.C,R16*%
X57600000Y24787500D03*
X57600000Y26612500D03*
%TD*%
D22*
%TO.C,R7*%
X40000000Y46912500D03*
X40000000Y45087500D03*
%TD*%
D23*
%TO.C,C11*%
X54500000Y24837500D03*
X54500000Y26562500D03*
%TD*%
D28*
%TO.C,C2*%
X56100000Y13162500D03*
X56100000Y11437500D03*
%TD*%
D47*
%TO.C,C9*%
X57862500Y35100000D03*
X56137500Y35100000D03*
%TD*%
D26*
%TO.C,SW3*%
X19650000Y49850000D03*
X19650000Y43350000D03*
X15150000Y49850000D03*
X15150000Y43350000D03*
%TD*%
D50*
%TO.C,C12*%
X49700000Y20400000D03*
X49700000Y14800000D03*
%TD*%
D48*
%TO.C,D8*%
X48000000Y32000000D03*
X48000000Y28000000D03*
%TD*%
D24*
%TO.C,D10*%
X42900000Y3200000D03*
D25*
X45440000Y3200000D03*
%TD*%
D35*
%TO.C,R3*%
X22500000Y51187500D03*
X22500000Y53012500D03*
%TD*%
%TO.C,R9*%
X19100000Y17987500D03*
X19100000Y19812500D03*
%TD*%
D28*
%TO.C,C20*%
X14100000Y36000000D03*
X14100000Y34275000D03*
%TD*%
D27*
%TO.C,H1*%
X67000000Y52000000D03*
%TD*%
D28*
%TO.C,C19*%
X21000000Y31862500D03*
X21000000Y30137500D03*
%TD*%
D51*
%TO.C,Q2*%
X40675000Y12405000D03*
X40675000Y11135000D03*
X40675000Y9865000D03*
X40675000Y8595000D03*
X45925000Y8595000D03*
X45925000Y9865000D03*
X45925000Y11135000D03*
X45925000Y12405000D03*
%TD*%
D52*
%TO.C,U4*%
X7100000Y50130000D03*
D53*
X4560000Y33470000D03*
D54*
X7100000Y33470000D03*
X9640000Y33470000D03*
%TD*%
D55*
%TO.C,J1*%
X29250000Y7532500D03*
D56*
X26750000Y7532500D03*
%TD*%
D47*
%TO.C,C3*%
X19562500Y53000000D03*
X17837500Y53000000D03*
%TD*%
D22*
%TO.C,R12*%
X10800000Y5712500D03*
X10800000Y3887500D03*
%TD*%
D26*
%TO.C,SW4*%
X52750000Y44250000D03*
X59250000Y44250000D03*
X52750000Y39750000D03*
X59250000Y39750000D03*
%TD*%
D23*
%TO.C,C14*%
X49200000Y2175000D03*
X49200000Y3900000D03*
%TD*%
D39*
%TO.C,R17*%
X52012500Y6900000D03*
X50187500Y6900000D03*
%TD*%
D24*
%TO.C,D4*%
X47400000Y52975000D03*
D25*
X47400000Y50435000D03*
%TD*%
D40*
%TO.C,J5*%
X65800000Y23100000D03*
D41*
X65800000Y26600000D03*
%TD*%
D46*
%TO.C,C16*%
X38137500Y15000000D03*
X39862500Y15000000D03*
%TD*%
D57*
%TO.C,D7*%
X3000000Y11800000D03*
X5800000Y11800000D03*
%TD*%
G36*
X12443039Y53480315D02*
G01*
X12488794Y53427511D01*
X12500000Y53376000D01*
X12500000Y40624000D01*
X12480315Y40556961D01*
X12427511Y40511206D01*
X12376000Y40500000D01*
X1624000Y40500000D01*
X1556961Y40519685D01*
X1511206Y40572489D01*
X1500000Y40624000D01*
X1500000Y53376000D01*
X1519685Y53443039D01*
X1572489Y53488794D01*
X1624000Y53500000D01*
X12376000Y53500000D01*
X12443039Y53480315D01*
G37*
M02*
