%TF.GenerationSoftware,KiCad,Pcbnew,7.0.8*%
%TF.CreationDate,2024-01-31T02:26:52-05:00*%
%TF.ProjectId,AT01_no_ftdi,41543031-5f6e-46f5-9f66-7464692e6b69,rev?*%
%TF.SameCoordinates,PX6ea0500PY7735940*%
%TF.FileFunction,Legend,Top*%
%TF.FilePolarity,Positive*%
%FSLAX46Y46*%
G04 Gerber Fmt 4.6, Leading zero omitted, Abs format (unit mm)*
G04 Created by KiCad (PCBNEW 7.0.8) date 2024-01-31 02:26:52*
%MOMM*%
%LPD*%
G01*
G04 APERTURE LIST*
%ADD10C,0.600000*%
%ADD11C,0.150000*%
%ADD12C,0.152400*%
%ADD13C,0.120000*%
%ADD14C,0.127000*%
%ADD15C,0.200000*%
G04 APERTURE END LIST*
D10*
X55409021Y2298343D02*
X55409021Y5298343D01*
X55409021Y5298343D02*
X56123307Y5298343D01*
X56123307Y5298343D02*
X56551878Y5155486D01*
X56551878Y5155486D02*
X56837593Y4869772D01*
X56837593Y4869772D02*
X56980450Y4584058D01*
X56980450Y4584058D02*
X57123307Y4012629D01*
X57123307Y4012629D02*
X57123307Y3584058D01*
X57123307Y3584058D02*
X56980450Y3012629D01*
X56980450Y3012629D02*
X56837593Y2726915D01*
X56837593Y2726915D02*
X56551878Y2441200D01*
X56551878Y2441200D02*
X56123307Y2298343D01*
X56123307Y2298343D02*
X55409021Y2298343D01*
X58409021Y2298343D02*
X58409021Y5298343D01*
X58409021Y3869772D02*
X60123307Y3869772D01*
X60123307Y2298343D02*
X60123307Y5298343D01*
X61180450Y5566915D02*
X62666164Y5566915D01*
X62666164Y5566915D02*
X61866164Y4652629D01*
X61866164Y4652629D02*
X62209021Y4652629D01*
X62209021Y4652629D02*
X62437593Y4538343D01*
X62437593Y4538343D02*
X62551878Y4424058D01*
X62551878Y4424058D02*
X62666164Y4195486D01*
X62666164Y4195486D02*
X62666164Y3624058D01*
X62666164Y3624058D02*
X62551878Y3395486D01*
X62551878Y3395486D02*
X62437593Y3281200D01*
X62437593Y3281200D02*
X62209021Y3166915D01*
X62209021Y3166915D02*
X61523307Y3166915D01*
X61523307Y3166915D02*
X61294735Y3281200D01*
X61294735Y3281200D02*
X61180450Y3395486D01*
D11*
X35454819Y8143096D02*
X36264342Y8143096D01*
X36264342Y8143096D02*
X36359580Y8190715D01*
X36359580Y8190715D02*
X36407200Y8238334D01*
X36407200Y8238334D02*
X36454819Y8333572D01*
X36454819Y8333572D02*
X36454819Y8524048D01*
X36454819Y8524048D02*
X36407200Y8619286D01*
X36407200Y8619286D02*
X36359580Y8666905D01*
X36359580Y8666905D02*
X36264342Y8714524D01*
X36264342Y8714524D02*
X35454819Y8714524D01*
X35454819Y9095477D02*
X35454819Y9714524D01*
X35454819Y9714524D02*
X35835771Y9381191D01*
X35835771Y9381191D02*
X35835771Y9524048D01*
X35835771Y9524048D02*
X35883390Y9619286D01*
X35883390Y9619286D02*
X35931009Y9666905D01*
X35931009Y9666905D02*
X36026247Y9714524D01*
X36026247Y9714524D02*
X36264342Y9714524D01*
X36264342Y9714524D02*
X36359580Y9666905D01*
X36359580Y9666905D02*
X36407200Y9619286D01*
X36407200Y9619286D02*
X36454819Y9524048D01*
X36454819Y9524048D02*
X36454819Y9238334D01*
X36454819Y9238334D02*
X36407200Y9143096D01*
X36407200Y9143096D02*
X36359580Y9095477D01*
X33454819Y6900001D02*
X33692914Y6900001D01*
X33597676Y6661906D02*
X33692914Y6900001D01*
X33692914Y6900001D02*
X33597676Y7138096D01*
X33883390Y6757144D02*
X33692914Y6900001D01*
X33692914Y6900001D02*
X33883390Y7042858D01*
X12154819Y12828096D02*
X12964342Y12828096D01*
X12964342Y12828096D02*
X13059580Y12875715D01*
X13059580Y12875715D02*
X13107200Y12923334D01*
X13107200Y12923334D02*
X13154819Y13018572D01*
X13154819Y13018572D02*
X13154819Y13209048D01*
X13154819Y13209048D02*
X13107200Y13304286D01*
X13107200Y13304286D02*
X13059580Y13351905D01*
X13059580Y13351905D02*
X12964342Y13399524D01*
X12964342Y13399524D02*
X12154819Y13399524D01*
X12250057Y13828096D02*
X12202438Y13875715D01*
X12202438Y13875715D02*
X12154819Y13970953D01*
X12154819Y13970953D02*
X12154819Y14209048D01*
X12154819Y14209048D02*
X12202438Y14304286D01*
X12202438Y14304286D02*
X12250057Y14351905D01*
X12250057Y14351905D02*
X12345295Y14399524D01*
X12345295Y14399524D02*
X12440533Y14399524D01*
X12440533Y14399524D02*
X12583390Y14351905D01*
X12583390Y14351905D02*
X13154819Y13780477D01*
X13154819Y13780477D02*
X13154819Y14399524D01*
X28138150Y49815181D02*
X28138150Y49005658D01*
X28138150Y49005658D02*
X28185769Y48910420D01*
X28185769Y48910420D02*
X28233388Y48862800D01*
X28233388Y48862800D02*
X28328626Y48815181D01*
X28328626Y48815181D02*
X28519102Y48815181D01*
X28519102Y48815181D02*
X28614340Y48862800D01*
X28614340Y48862800D02*
X28661959Y48910420D01*
X28661959Y48910420D02*
X28709578Y49005658D01*
X28709578Y49005658D02*
X28709578Y49815181D01*
X29709578Y48815181D02*
X29138150Y48815181D01*
X29423864Y48815181D02*
X29423864Y49815181D01*
X29423864Y49815181D02*
X29328626Y49672324D01*
X29328626Y49672324D02*
X29233388Y49577086D01*
X29233388Y49577086D02*
X29138150Y49529467D01*
X32200000Y52445181D02*
X32200000Y52207086D01*
X31961905Y52302324D02*
X32200000Y52207086D01*
X32200000Y52207086D02*
X32438095Y52302324D01*
X32057143Y52016610D02*
X32200000Y52207086D01*
X32200000Y52207086D02*
X32342857Y52016610D01*
X19339580Y34770834D02*
X19387200Y34723215D01*
X19387200Y34723215D02*
X19434819Y34580358D01*
X19434819Y34580358D02*
X19434819Y34485120D01*
X19434819Y34485120D02*
X19387200Y34342263D01*
X19387200Y34342263D02*
X19291961Y34247025D01*
X19291961Y34247025D02*
X19196723Y34199406D01*
X19196723Y34199406D02*
X19006247Y34151787D01*
X19006247Y34151787D02*
X18863390Y34151787D01*
X18863390Y34151787D02*
X18672914Y34199406D01*
X18672914Y34199406D02*
X18577676Y34247025D01*
X18577676Y34247025D02*
X18482438Y34342263D01*
X18482438Y34342263D02*
X18434819Y34485120D01*
X18434819Y34485120D02*
X18434819Y34580358D01*
X18434819Y34580358D02*
X18482438Y34723215D01*
X18482438Y34723215D02*
X18530057Y34770834D01*
X18434819Y35104168D02*
X18434819Y35770834D01*
X18434819Y35770834D02*
X19434819Y35342263D01*
X61884819Y17566667D02*
X62599104Y17566667D01*
X62599104Y17566667D02*
X62741961Y17519048D01*
X62741961Y17519048D02*
X62837200Y17423810D01*
X62837200Y17423810D02*
X62884819Y17280953D01*
X62884819Y17280953D02*
X62884819Y17185715D01*
X61884819Y18471429D02*
X61884819Y18280953D01*
X61884819Y18280953D02*
X61932438Y18185715D01*
X61932438Y18185715D02*
X61980057Y18138096D01*
X61980057Y18138096D02*
X62122914Y18042858D01*
X62122914Y18042858D02*
X62313390Y17995239D01*
X62313390Y17995239D02*
X62694342Y17995239D01*
X62694342Y17995239D02*
X62789580Y18042858D01*
X62789580Y18042858D02*
X62837200Y18090477D01*
X62837200Y18090477D02*
X62884819Y18185715D01*
X62884819Y18185715D02*
X62884819Y18376191D01*
X62884819Y18376191D02*
X62837200Y18471429D01*
X62837200Y18471429D02*
X62789580Y18519048D01*
X62789580Y18519048D02*
X62694342Y18566667D01*
X62694342Y18566667D02*
X62456247Y18566667D01*
X62456247Y18566667D02*
X62361009Y18519048D01*
X62361009Y18519048D02*
X62313390Y18471429D01*
X62313390Y18471429D02*
X62265771Y18376191D01*
X62265771Y18376191D02*
X62265771Y18185715D01*
X62265771Y18185715D02*
X62313390Y18090477D01*
X62313390Y18090477D02*
X62361009Y18042858D01*
X62361009Y18042858D02*
X62456247Y17995239D01*
X10954819Y22861906D02*
X9954819Y22861906D01*
X9954819Y22861906D02*
X9954819Y23100001D01*
X9954819Y23100001D02*
X10002438Y23242858D01*
X10002438Y23242858D02*
X10097676Y23338096D01*
X10097676Y23338096D02*
X10192914Y23385715D01*
X10192914Y23385715D02*
X10383390Y23433334D01*
X10383390Y23433334D02*
X10526247Y23433334D01*
X10526247Y23433334D02*
X10716723Y23385715D01*
X10716723Y23385715D02*
X10811961Y23338096D01*
X10811961Y23338096D02*
X10907200Y23242858D01*
X10907200Y23242858D02*
X10954819Y23100001D01*
X10954819Y23100001D02*
X10954819Y22861906D01*
X10050057Y23814287D02*
X10002438Y23861906D01*
X10002438Y23861906D02*
X9954819Y23957144D01*
X9954819Y23957144D02*
X9954819Y24195239D01*
X9954819Y24195239D02*
X10002438Y24290477D01*
X10002438Y24290477D02*
X10050057Y24338096D01*
X10050057Y24338096D02*
X10145295Y24385715D01*
X10145295Y24385715D02*
X10240533Y24385715D01*
X10240533Y24385715D02*
X10383390Y24338096D01*
X10383390Y24338096D02*
X10954819Y23766668D01*
X10954819Y23766668D02*
X10954819Y24385715D01*
X20033333Y15445181D02*
X19700000Y15921372D01*
X19461905Y15445181D02*
X19461905Y16445181D01*
X19461905Y16445181D02*
X19842857Y16445181D01*
X19842857Y16445181D02*
X19938095Y16397562D01*
X19938095Y16397562D02*
X19985714Y16349943D01*
X19985714Y16349943D02*
X20033333Y16254705D01*
X20033333Y16254705D02*
X20033333Y16111848D01*
X20033333Y16111848D02*
X19985714Y16016610D01*
X19985714Y16016610D02*
X19938095Y15968991D01*
X19938095Y15968991D02*
X19842857Y15921372D01*
X19842857Y15921372D02*
X19461905Y15921372D01*
X20414286Y16349943D02*
X20461905Y16397562D01*
X20461905Y16397562D02*
X20557143Y16445181D01*
X20557143Y16445181D02*
X20795238Y16445181D01*
X20795238Y16445181D02*
X20890476Y16397562D01*
X20890476Y16397562D02*
X20938095Y16349943D01*
X20938095Y16349943D02*
X20985714Y16254705D01*
X20985714Y16254705D02*
X20985714Y16159467D01*
X20985714Y16159467D02*
X20938095Y16016610D01*
X20938095Y16016610D02*
X20366667Y15445181D01*
X20366667Y15445181D02*
X20985714Y15445181D01*
X13554819Y25585715D02*
X12554819Y25585715D01*
X12554819Y25585715D02*
X12554819Y25823810D01*
X12554819Y25823810D02*
X12602438Y25966667D01*
X12602438Y25966667D02*
X12697676Y26061905D01*
X12697676Y26061905D02*
X12792914Y26109524D01*
X12792914Y26109524D02*
X12983390Y26157143D01*
X12983390Y26157143D02*
X13126247Y26157143D01*
X13126247Y26157143D02*
X13316723Y26109524D01*
X13316723Y26109524D02*
X13411961Y26061905D01*
X13411961Y26061905D02*
X13507200Y25966667D01*
X13507200Y25966667D02*
X13554819Y25823810D01*
X13554819Y25823810D02*
X13554819Y25585715D01*
X13554819Y27109524D02*
X13554819Y26538096D01*
X13554819Y26823810D02*
X12554819Y26823810D01*
X12554819Y26823810D02*
X12697676Y26728572D01*
X12697676Y26728572D02*
X12792914Y26633334D01*
X12792914Y26633334D02*
X12840533Y26538096D01*
X12650057Y27490477D02*
X12602438Y27538096D01*
X12602438Y27538096D02*
X12554819Y27633334D01*
X12554819Y27633334D02*
X12554819Y27871429D01*
X12554819Y27871429D02*
X12602438Y27966667D01*
X12602438Y27966667D02*
X12650057Y28014286D01*
X12650057Y28014286D02*
X12745295Y28061905D01*
X12745295Y28061905D02*
X12840533Y28061905D01*
X12840533Y28061905D02*
X12983390Y28014286D01*
X12983390Y28014286D02*
X13554819Y27442858D01*
X13554819Y27442858D02*
X13554819Y28061905D01*
X11154819Y19861906D02*
X10154819Y19861906D01*
X10154819Y19861906D02*
X10154819Y20100001D01*
X10154819Y20100001D02*
X10202438Y20242858D01*
X10202438Y20242858D02*
X10297676Y20338096D01*
X10297676Y20338096D02*
X10392914Y20385715D01*
X10392914Y20385715D02*
X10583390Y20433334D01*
X10583390Y20433334D02*
X10726247Y20433334D01*
X10726247Y20433334D02*
X10916723Y20385715D01*
X10916723Y20385715D02*
X11011961Y20338096D01*
X11011961Y20338096D02*
X11107200Y20242858D01*
X11107200Y20242858D02*
X11154819Y20100001D01*
X11154819Y20100001D02*
X11154819Y19861906D01*
X10154819Y20766668D02*
X10154819Y21385715D01*
X10154819Y21385715D02*
X10535771Y21052382D01*
X10535771Y21052382D02*
X10535771Y21195239D01*
X10535771Y21195239D02*
X10583390Y21290477D01*
X10583390Y21290477D02*
X10631009Y21338096D01*
X10631009Y21338096D02*
X10726247Y21385715D01*
X10726247Y21385715D02*
X10964342Y21385715D01*
X10964342Y21385715D02*
X11059580Y21338096D01*
X11059580Y21338096D02*
X11107200Y21290477D01*
X11107200Y21290477D02*
X11154819Y21195239D01*
X11154819Y21195239D02*
X11154819Y20909525D01*
X11154819Y20909525D02*
X11107200Y20814287D01*
X11107200Y20814287D02*
X11059580Y20766668D01*
X38054819Y45833334D02*
X37578628Y45500001D01*
X38054819Y45261906D02*
X37054819Y45261906D01*
X37054819Y45261906D02*
X37054819Y45642858D01*
X37054819Y45642858D02*
X37102438Y45738096D01*
X37102438Y45738096D02*
X37150057Y45785715D01*
X37150057Y45785715D02*
X37245295Y45833334D01*
X37245295Y45833334D02*
X37388152Y45833334D01*
X37388152Y45833334D02*
X37483390Y45785715D01*
X37483390Y45785715D02*
X37531009Y45738096D01*
X37531009Y45738096D02*
X37578628Y45642858D01*
X37578628Y45642858D02*
X37578628Y45261906D01*
X37483390Y46404763D02*
X37435771Y46309525D01*
X37435771Y46309525D02*
X37388152Y46261906D01*
X37388152Y46261906D02*
X37292914Y46214287D01*
X37292914Y46214287D02*
X37245295Y46214287D01*
X37245295Y46214287D02*
X37150057Y46261906D01*
X37150057Y46261906D02*
X37102438Y46309525D01*
X37102438Y46309525D02*
X37054819Y46404763D01*
X37054819Y46404763D02*
X37054819Y46595239D01*
X37054819Y46595239D02*
X37102438Y46690477D01*
X37102438Y46690477D02*
X37150057Y46738096D01*
X37150057Y46738096D02*
X37245295Y46785715D01*
X37245295Y46785715D02*
X37292914Y46785715D01*
X37292914Y46785715D02*
X37388152Y46738096D01*
X37388152Y46738096D02*
X37435771Y46690477D01*
X37435771Y46690477D02*
X37483390Y46595239D01*
X37483390Y46595239D02*
X37483390Y46404763D01*
X37483390Y46404763D02*
X37531009Y46309525D01*
X37531009Y46309525D02*
X37578628Y46261906D01*
X37578628Y46261906D02*
X37673866Y46214287D01*
X37673866Y46214287D02*
X37864342Y46214287D01*
X37864342Y46214287D02*
X37959580Y46261906D01*
X37959580Y46261906D02*
X38007200Y46309525D01*
X38007200Y46309525D02*
X38054819Y46404763D01*
X38054819Y46404763D02*
X38054819Y46595239D01*
X38054819Y46595239D02*
X38007200Y46690477D01*
X38007200Y46690477D02*
X37959580Y46738096D01*
X37959580Y46738096D02*
X37864342Y46785715D01*
X37864342Y46785715D02*
X37673866Y46785715D01*
X37673866Y46785715D02*
X37578628Y46738096D01*
X37578628Y46738096D02*
X37531009Y46690477D01*
X37531009Y46690477D02*
X37483390Y46595239D01*
X36759580Y14457143D02*
X36807200Y14409524D01*
X36807200Y14409524D02*
X36854819Y14266667D01*
X36854819Y14266667D02*
X36854819Y14171429D01*
X36854819Y14171429D02*
X36807200Y14028572D01*
X36807200Y14028572D02*
X36711961Y13933334D01*
X36711961Y13933334D02*
X36616723Y13885715D01*
X36616723Y13885715D02*
X36426247Y13838096D01*
X36426247Y13838096D02*
X36283390Y13838096D01*
X36283390Y13838096D02*
X36092914Y13885715D01*
X36092914Y13885715D02*
X35997676Y13933334D01*
X35997676Y13933334D02*
X35902438Y14028572D01*
X35902438Y14028572D02*
X35854819Y14171429D01*
X35854819Y14171429D02*
X35854819Y14266667D01*
X35854819Y14266667D02*
X35902438Y14409524D01*
X35902438Y14409524D02*
X35950057Y14457143D01*
X36854819Y15409524D02*
X36854819Y14838096D01*
X36854819Y15123810D02*
X35854819Y15123810D01*
X35854819Y15123810D02*
X35997676Y15028572D01*
X35997676Y15028572D02*
X36092914Y14933334D01*
X36092914Y14933334D02*
X36140533Y14838096D01*
X35854819Y16314286D02*
X35854819Y15838096D01*
X35854819Y15838096D02*
X36331009Y15790477D01*
X36331009Y15790477D02*
X36283390Y15838096D01*
X36283390Y15838096D02*
X36235771Y15933334D01*
X36235771Y15933334D02*
X36235771Y16171429D01*
X36235771Y16171429D02*
X36283390Y16266667D01*
X36283390Y16266667D02*
X36331009Y16314286D01*
X36331009Y16314286D02*
X36426247Y16361905D01*
X36426247Y16361905D02*
X36664342Y16361905D01*
X36664342Y16361905D02*
X36759580Y16314286D01*
X36759580Y16314286D02*
X36807200Y16266667D01*
X36807200Y16266667D02*
X36854819Y16171429D01*
X36854819Y16171429D02*
X36854819Y15933334D01*
X36854819Y15933334D02*
X36807200Y15838096D01*
X36807200Y15838096D02*
X36759580Y15790477D01*
X32929580Y49070834D02*
X32977200Y49023215D01*
X32977200Y49023215D02*
X33024819Y48880358D01*
X33024819Y48880358D02*
X33024819Y48785120D01*
X33024819Y48785120D02*
X32977200Y48642263D01*
X32977200Y48642263D02*
X32881961Y48547025D01*
X32881961Y48547025D02*
X32786723Y48499406D01*
X32786723Y48499406D02*
X32596247Y48451787D01*
X32596247Y48451787D02*
X32453390Y48451787D01*
X32453390Y48451787D02*
X32262914Y48499406D01*
X32262914Y48499406D02*
X32167676Y48547025D01*
X32167676Y48547025D02*
X32072438Y48642263D01*
X32072438Y48642263D02*
X32024819Y48785120D01*
X32024819Y48785120D02*
X32024819Y48880358D01*
X32024819Y48880358D02*
X32072438Y49023215D01*
X32072438Y49023215D02*
X32120057Y49070834D01*
X32358152Y49927977D02*
X33024819Y49927977D01*
X31977200Y49689882D02*
X32691485Y49451787D01*
X32691485Y49451787D02*
X32691485Y50070834D01*
X41161905Y47745181D02*
X41161905Y48745181D01*
X41161905Y48745181D02*
X41400000Y48745181D01*
X41400000Y48745181D02*
X41542857Y48697562D01*
X41542857Y48697562D02*
X41638095Y48602324D01*
X41638095Y48602324D02*
X41685714Y48507086D01*
X41685714Y48507086D02*
X41733333Y48316610D01*
X41733333Y48316610D02*
X41733333Y48173753D01*
X41733333Y48173753D02*
X41685714Y47983277D01*
X41685714Y47983277D02*
X41638095Y47888039D01*
X41638095Y47888039D02*
X41542857Y47792800D01*
X41542857Y47792800D02*
X41400000Y47745181D01*
X41400000Y47745181D02*
X41161905Y47745181D01*
X42638095Y48745181D02*
X42161905Y48745181D01*
X42161905Y48745181D02*
X42114286Y48268991D01*
X42114286Y48268991D02*
X42161905Y48316610D01*
X42161905Y48316610D02*
X42257143Y48364229D01*
X42257143Y48364229D02*
X42495238Y48364229D01*
X42495238Y48364229D02*
X42590476Y48316610D01*
X42590476Y48316610D02*
X42638095Y48268991D01*
X42638095Y48268991D02*
X42685714Y48173753D01*
X42685714Y48173753D02*
X42685714Y47935658D01*
X42685714Y47935658D02*
X42638095Y47840420D01*
X42638095Y47840420D02*
X42590476Y47792800D01*
X42590476Y47792800D02*
X42495238Y47745181D01*
X42495238Y47745181D02*
X42257143Y47745181D01*
X42257143Y47745181D02*
X42161905Y47792800D01*
X42161905Y47792800D02*
X42114286Y47840420D01*
X54666667Y49842800D02*
X54809524Y49795181D01*
X54809524Y49795181D02*
X55047619Y49795181D01*
X55047619Y49795181D02*
X55142857Y49842800D01*
X55142857Y49842800D02*
X55190476Y49890420D01*
X55190476Y49890420D02*
X55238095Y49985658D01*
X55238095Y49985658D02*
X55238095Y50080896D01*
X55238095Y50080896D02*
X55190476Y50176134D01*
X55190476Y50176134D02*
X55142857Y50223753D01*
X55142857Y50223753D02*
X55047619Y50271372D01*
X55047619Y50271372D02*
X54857143Y50318991D01*
X54857143Y50318991D02*
X54761905Y50366610D01*
X54761905Y50366610D02*
X54714286Y50414229D01*
X54714286Y50414229D02*
X54666667Y50509467D01*
X54666667Y50509467D02*
X54666667Y50604705D01*
X54666667Y50604705D02*
X54714286Y50699943D01*
X54714286Y50699943D02*
X54761905Y50747562D01*
X54761905Y50747562D02*
X54857143Y50795181D01*
X54857143Y50795181D02*
X55095238Y50795181D01*
X55095238Y50795181D02*
X55238095Y50747562D01*
X55571429Y50795181D02*
X55809524Y49795181D01*
X55809524Y49795181D02*
X56000000Y50509467D01*
X56000000Y50509467D02*
X56190476Y49795181D01*
X56190476Y49795181D02*
X56428572Y50795181D01*
X57333333Y49795181D02*
X56761905Y49795181D01*
X57047619Y49795181D02*
X57047619Y50795181D01*
X57047619Y50795181D02*
X56952381Y50652324D01*
X56952381Y50652324D02*
X56857143Y50557086D01*
X56857143Y50557086D02*
X56761905Y50509467D01*
X2238095Y5295181D02*
X2238095Y6295181D01*
X2238095Y5818991D02*
X2809523Y5818991D01*
X2809523Y5295181D02*
X2809523Y6295181D01*
X3190476Y6295181D02*
X3809523Y6295181D01*
X3809523Y6295181D02*
X3476190Y5914229D01*
X3476190Y5914229D02*
X3619047Y5914229D01*
X3619047Y5914229D02*
X3714285Y5866610D01*
X3714285Y5866610D02*
X3761904Y5818991D01*
X3761904Y5818991D02*
X3809523Y5723753D01*
X3809523Y5723753D02*
X3809523Y5485658D01*
X3809523Y5485658D02*
X3761904Y5390420D01*
X3761904Y5390420D02*
X3714285Y5342800D01*
X3714285Y5342800D02*
X3619047Y5295181D01*
X3619047Y5295181D02*
X3333333Y5295181D01*
X3333333Y5295181D02*
X3238095Y5342800D01*
X3238095Y5342800D02*
X3190476Y5390420D01*
X54859580Y35357143D02*
X54907200Y35309524D01*
X54907200Y35309524D02*
X54954819Y35166667D01*
X54954819Y35166667D02*
X54954819Y35071429D01*
X54954819Y35071429D02*
X54907200Y34928572D01*
X54907200Y34928572D02*
X54811961Y34833334D01*
X54811961Y34833334D02*
X54716723Y34785715D01*
X54716723Y34785715D02*
X54526247Y34738096D01*
X54526247Y34738096D02*
X54383390Y34738096D01*
X54383390Y34738096D02*
X54192914Y34785715D01*
X54192914Y34785715D02*
X54097676Y34833334D01*
X54097676Y34833334D02*
X54002438Y34928572D01*
X54002438Y34928572D02*
X53954819Y35071429D01*
X53954819Y35071429D02*
X53954819Y35166667D01*
X53954819Y35166667D02*
X54002438Y35309524D01*
X54002438Y35309524D02*
X54050057Y35357143D01*
X54954819Y36309524D02*
X54954819Y35738096D01*
X54954819Y36023810D02*
X53954819Y36023810D01*
X53954819Y36023810D02*
X54097676Y35928572D01*
X54097676Y35928572D02*
X54192914Y35833334D01*
X54192914Y35833334D02*
X54240533Y35738096D01*
X53954819Y36928572D02*
X53954819Y37023810D01*
X53954819Y37023810D02*
X54002438Y37119048D01*
X54002438Y37119048D02*
X54050057Y37166667D01*
X54050057Y37166667D02*
X54145295Y37214286D01*
X54145295Y37214286D02*
X54335771Y37261905D01*
X54335771Y37261905D02*
X54573866Y37261905D01*
X54573866Y37261905D02*
X54764342Y37214286D01*
X54764342Y37214286D02*
X54859580Y37166667D01*
X54859580Y37166667D02*
X54907200Y37119048D01*
X54907200Y37119048D02*
X54954819Y37023810D01*
X54954819Y37023810D02*
X54954819Y36928572D01*
X54954819Y36928572D02*
X54907200Y36833334D01*
X54907200Y36833334D02*
X54859580Y36785715D01*
X54859580Y36785715D02*
X54764342Y36738096D01*
X54764342Y36738096D02*
X54573866Y36690477D01*
X54573866Y36690477D02*
X54335771Y36690477D01*
X54335771Y36690477D02*
X54145295Y36738096D01*
X54145295Y36738096D02*
X54050057Y36785715D01*
X54050057Y36785715D02*
X54002438Y36833334D01*
X54002438Y36833334D02*
X53954819Y36928572D01*
X3854819Y22766667D02*
X4569104Y22766667D01*
X4569104Y22766667D02*
X4711961Y22719048D01*
X4711961Y22719048D02*
X4807200Y22623810D01*
X4807200Y22623810D02*
X4854819Y22480953D01*
X4854819Y22480953D02*
X4854819Y22385715D01*
X3950057Y23195239D02*
X3902438Y23242858D01*
X3902438Y23242858D02*
X3854819Y23338096D01*
X3854819Y23338096D02*
X3854819Y23576191D01*
X3854819Y23576191D02*
X3902438Y23671429D01*
X3902438Y23671429D02*
X3950057Y23719048D01*
X3950057Y23719048D02*
X4045295Y23766667D01*
X4045295Y23766667D02*
X4140533Y23766667D01*
X4140533Y23766667D02*
X4283390Y23719048D01*
X4283390Y23719048D02*
X4854819Y23147620D01*
X4854819Y23147620D02*
X4854819Y23766667D01*
X26970405Y13545181D02*
X26970405Y14545181D01*
X27541833Y13545181D02*
X27113262Y14116610D01*
X27541833Y14545181D02*
X26970405Y13973753D01*
X28494214Y13545181D02*
X27922786Y13545181D01*
X28208500Y13545181D02*
X28208500Y14545181D01*
X28208500Y14545181D02*
X28113262Y14402324D01*
X28113262Y14402324D02*
X28018024Y14307086D01*
X28018024Y14307086D02*
X27922786Y14259467D01*
X32470999Y8374820D02*
X32470999Y8612915D01*
X32709094Y8517677D02*
X32470999Y8612915D01*
X32470999Y8612915D02*
X32232904Y8517677D01*
X32613856Y8803391D02*
X32470999Y8612915D01*
X32470999Y8612915D02*
X32328142Y8803391D01*
X32471000Y9465181D02*
X32471000Y9227086D01*
X32232905Y9322324D02*
X32471000Y9227086D01*
X32471000Y9227086D02*
X32709095Y9322324D01*
X32328143Y9036610D02*
X32471000Y9227086D01*
X32471000Y9227086D02*
X32613857Y9036610D01*
X64454819Y48733334D02*
X63978628Y48400001D01*
X64454819Y48161906D02*
X63454819Y48161906D01*
X63454819Y48161906D02*
X63454819Y48542858D01*
X63454819Y48542858D02*
X63502438Y48638096D01*
X63502438Y48638096D02*
X63550057Y48685715D01*
X63550057Y48685715D02*
X63645295Y48733334D01*
X63645295Y48733334D02*
X63788152Y48733334D01*
X63788152Y48733334D02*
X63883390Y48685715D01*
X63883390Y48685715D02*
X63931009Y48638096D01*
X63931009Y48638096D02*
X63978628Y48542858D01*
X63978628Y48542858D02*
X63978628Y48161906D01*
X64454819Y49685715D02*
X64454819Y49114287D01*
X64454819Y49400001D02*
X63454819Y49400001D01*
X63454819Y49400001D02*
X63597676Y49304763D01*
X63597676Y49304763D02*
X63692914Y49209525D01*
X63692914Y49209525D02*
X63740533Y49114287D01*
X17445180Y11466667D02*
X17445180Y11942857D01*
X17445180Y11942857D02*
X18445180Y11942857D01*
X17445180Y10609524D02*
X17445180Y11180952D01*
X17445180Y10895238D02*
X18445180Y10895238D01*
X18445180Y10895238D02*
X18302323Y10990476D01*
X18302323Y10990476D02*
X18207085Y11085714D01*
X18207085Y11085714D02*
X18159466Y11180952D01*
X21254819Y7600001D02*
X21492914Y7600001D01*
X21397676Y7361906D02*
X21492914Y7600001D01*
X21492914Y7600001D02*
X21397676Y7838096D01*
X21683390Y7457144D02*
X21492914Y7600001D01*
X21492914Y7600001D02*
X21683390Y7742858D01*
X16833333Y30975181D02*
X16500000Y31451372D01*
X16261905Y30975181D02*
X16261905Y31975181D01*
X16261905Y31975181D02*
X16642857Y31975181D01*
X16642857Y31975181D02*
X16738095Y31927562D01*
X16738095Y31927562D02*
X16785714Y31879943D01*
X16785714Y31879943D02*
X16833333Y31784705D01*
X16833333Y31784705D02*
X16833333Y31641848D01*
X16833333Y31641848D02*
X16785714Y31546610D01*
X16785714Y31546610D02*
X16738095Y31498991D01*
X16738095Y31498991D02*
X16642857Y31451372D01*
X16642857Y31451372D02*
X16261905Y31451372D01*
X17738095Y31975181D02*
X17261905Y31975181D01*
X17261905Y31975181D02*
X17214286Y31498991D01*
X17214286Y31498991D02*
X17261905Y31546610D01*
X17261905Y31546610D02*
X17357143Y31594229D01*
X17357143Y31594229D02*
X17595238Y31594229D01*
X17595238Y31594229D02*
X17690476Y31546610D01*
X17690476Y31546610D02*
X17738095Y31498991D01*
X17738095Y31498991D02*
X17785714Y31403753D01*
X17785714Y31403753D02*
X17785714Y31165658D01*
X17785714Y31165658D02*
X17738095Y31070420D01*
X17738095Y31070420D02*
X17690476Y31022800D01*
X17690476Y31022800D02*
X17595238Y30975181D01*
X17595238Y30975181D02*
X17357143Y30975181D01*
X17357143Y30975181D02*
X17261905Y31022800D01*
X17261905Y31022800D02*
X17214286Y31070420D01*
X12424819Y8057143D02*
X11948628Y7723810D01*
X12424819Y7485715D02*
X11424819Y7485715D01*
X11424819Y7485715D02*
X11424819Y7866667D01*
X11424819Y7866667D02*
X11472438Y7961905D01*
X11472438Y7961905D02*
X11520057Y8009524D01*
X11520057Y8009524D02*
X11615295Y8057143D01*
X11615295Y8057143D02*
X11758152Y8057143D01*
X11758152Y8057143D02*
X11853390Y8009524D01*
X11853390Y8009524D02*
X11901009Y7961905D01*
X11901009Y7961905D02*
X11948628Y7866667D01*
X11948628Y7866667D02*
X11948628Y7485715D01*
X12424819Y9009524D02*
X12424819Y8438096D01*
X12424819Y8723810D02*
X11424819Y8723810D01*
X11424819Y8723810D02*
X11567676Y8628572D01*
X11567676Y8628572D02*
X11662914Y8533334D01*
X11662914Y8533334D02*
X11710533Y8438096D01*
X11424819Y9914286D02*
X11424819Y9438096D01*
X11424819Y9438096D02*
X11901009Y9390477D01*
X11901009Y9390477D02*
X11853390Y9438096D01*
X11853390Y9438096D02*
X11805771Y9533334D01*
X11805771Y9533334D02*
X11805771Y9771429D01*
X11805771Y9771429D02*
X11853390Y9866667D01*
X11853390Y9866667D02*
X11901009Y9914286D01*
X11901009Y9914286D02*
X11996247Y9961905D01*
X11996247Y9961905D02*
X12234342Y9961905D01*
X12234342Y9961905D02*
X12329580Y9914286D01*
X12329580Y9914286D02*
X12377200Y9866667D01*
X12377200Y9866667D02*
X12424819Y9771429D01*
X12424819Y9771429D02*
X12424819Y9533334D01*
X12424819Y9533334D02*
X12377200Y9438096D01*
X12377200Y9438096D02*
X12329580Y9390477D01*
X22054819Y26833334D02*
X21578628Y26500001D01*
X22054819Y26261906D02*
X21054819Y26261906D01*
X21054819Y26261906D02*
X21054819Y26642858D01*
X21054819Y26642858D02*
X21102438Y26738096D01*
X21102438Y26738096D02*
X21150057Y26785715D01*
X21150057Y26785715D02*
X21245295Y26833334D01*
X21245295Y26833334D02*
X21388152Y26833334D01*
X21388152Y26833334D02*
X21483390Y26785715D01*
X21483390Y26785715D02*
X21531009Y26738096D01*
X21531009Y26738096D02*
X21578628Y26642858D01*
X21578628Y26642858D02*
X21578628Y26261906D01*
X21388152Y27690477D02*
X22054819Y27690477D01*
X21007200Y27452382D02*
X21721485Y27214287D01*
X21721485Y27214287D02*
X21721485Y27833334D01*
X22359580Y34419643D02*
X22407200Y34372024D01*
X22407200Y34372024D02*
X22454819Y34229167D01*
X22454819Y34229167D02*
X22454819Y34133929D01*
X22454819Y34133929D02*
X22407200Y33991072D01*
X22407200Y33991072D02*
X22311961Y33895834D01*
X22311961Y33895834D02*
X22216723Y33848215D01*
X22216723Y33848215D02*
X22026247Y33800596D01*
X22026247Y33800596D02*
X21883390Y33800596D01*
X21883390Y33800596D02*
X21692914Y33848215D01*
X21692914Y33848215D02*
X21597676Y33895834D01*
X21597676Y33895834D02*
X21502438Y33991072D01*
X21502438Y33991072D02*
X21454819Y34133929D01*
X21454819Y34133929D02*
X21454819Y34229167D01*
X21454819Y34229167D02*
X21502438Y34372024D01*
X21502438Y34372024D02*
X21550057Y34419643D01*
X22454819Y35372024D02*
X22454819Y34800596D01*
X22454819Y35086310D02*
X21454819Y35086310D01*
X21454819Y35086310D02*
X21597676Y34991072D01*
X21597676Y34991072D02*
X21692914Y34895834D01*
X21692914Y34895834D02*
X21740533Y34800596D01*
X21454819Y35705358D02*
X21454819Y36372024D01*
X21454819Y36372024D02*
X22454819Y35943453D01*
X15961905Y1945181D02*
X15961905Y2945181D01*
X15961905Y2945181D02*
X16200000Y2945181D01*
X16200000Y2945181D02*
X16342857Y2897562D01*
X16342857Y2897562D02*
X16438095Y2802324D01*
X16438095Y2802324D02*
X16485714Y2707086D01*
X16485714Y2707086D02*
X16533333Y2516610D01*
X16533333Y2516610D02*
X16533333Y2373753D01*
X16533333Y2373753D02*
X16485714Y2183277D01*
X16485714Y2183277D02*
X16438095Y2088039D01*
X16438095Y2088039D02*
X16342857Y1992800D01*
X16342857Y1992800D02*
X16200000Y1945181D01*
X16200000Y1945181D02*
X15961905Y1945181D01*
X17009524Y1945181D02*
X17200000Y1945181D01*
X17200000Y1945181D02*
X17295238Y1992800D01*
X17295238Y1992800D02*
X17342857Y2040420D01*
X17342857Y2040420D02*
X17438095Y2183277D01*
X17438095Y2183277D02*
X17485714Y2373753D01*
X17485714Y2373753D02*
X17485714Y2754705D01*
X17485714Y2754705D02*
X17438095Y2849943D01*
X17438095Y2849943D02*
X17390476Y2897562D01*
X17390476Y2897562D02*
X17295238Y2945181D01*
X17295238Y2945181D02*
X17104762Y2945181D01*
X17104762Y2945181D02*
X17009524Y2897562D01*
X17009524Y2897562D02*
X16961905Y2849943D01*
X16961905Y2849943D02*
X16914286Y2754705D01*
X16914286Y2754705D02*
X16914286Y2516610D01*
X16914286Y2516610D02*
X16961905Y2421372D01*
X16961905Y2421372D02*
X17009524Y2373753D01*
X17009524Y2373753D02*
X17104762Y2326134D01*
X17104762Y2326134D02*
X17295238Y2326134D01*
X17295238Y2326134D02*
X17390476Y2373753D01*
X17390476Y2373753D02*
X17438095Y2421372D01*
X17438095Y2421372D02*
X17485714Y2516610D01*
X3457142Y14445181D02*
X3123809Y14921372D01*
X2885714Y14445181D02*
X2885714Y15445181D01*
X2885714Y15445181D02*
X3266666Y15445181D01*
X3266666Y15445181D02*
X3361904Y15397562D01*
X3361904Y15397562D02*
X3409523Y15349943D01*
X3409523Y15349943D02*
X3457142Y15254705D01*
X3457142Y15254705D02*
X3457142Y15111848D01*
X3457142Y15111848D02*
X3409523Y15016610D01*
X3409523Y15016610D02*
X3361904Y14968991D01*
X3361904Y14968991D02*
X3266666Y14921372D01*
X3266666Y14921372D02*
X2885714Y14921372D01*
X4409523Y14445181D02*
X3838095Y14445181D01*
X4123809Y14445181D02*
X4123809Y15445181D01*
X4123809Y15445181D02*
X4028571Y15302324D01*
X4028571Y15302324D02*
X3933333Y15207086D01*
X3933333Y15207086D02*
X3838095Y15159467D01*
X5266666Y15111848D02*
X5266666Y14445181D01*
X5028571Y15492800D02*
X4790476Y14778515D01*
X4790476Y14778515D02*
X5409523Y14778515D01*
X66238095Y5295181D02*
X66238095Y6295181D01*
X66238095Y5818991D02*
X66809523Y5818991D01*
X66809523Y5295181D02*
X66809523Y6295181D01*
X67238095Y6199943D02*
X67285714Y6247562D01*
X67285714Y6247562D02*
X67380952Y6295181D01*
X67380952Y6295181D02*
X67619047Y6295181D01*
X67619047Y6295181D02*
X67714285Y6247562D01*
X67714285Y6247562D02*
X67761904Y6199943D01*
X67761904Y6199943D02*
X67809523Y6104705D01*
X67809523Y6104705D02*
X67809523Y6009467D01*
X67809523Y6009467D02*
X67761904Y5866610D01*
X67761904Y5866610D02*
X67190476Y5295181D01*
X67190476Y5295181D02*
X67809523Y5295181D01*
X60654819Y34166667D02*
X61369104Y34166667D01*
X61369104Y34166667D02*
X61511961Y34119048D01*
X61511961Y34119048D02*
X61607200Y34023810D01*
X61607200Y34023810D02*
X61654819Y33880953D01*
X61654819Y33880953D02*
X61654819Y33785715D01*
X60988152Y35071429D02*
X61654819Y35071429D01*
X60607200Y34833334D02*
X61321485Y34595239D01*
X61321485Y34595239D02*
X61321485Y35214286D01*
X35854819Y33238096D02*
X36664342Y33238096D01*
X36664342Y33238096D02*
X36759580Y33285715D01*
X36759580Y33285715D02*
X36807200Y33333334D01*
X36807200Y33333334D02*
X36854819Y33428572D01*
X36854819Y33428572D02*
X36854819Y33619048D01*
X36854819Y33619048D02*
X36807200Y33714286D01*
X36807200Y33714286D02*
X36759580Y33761905D01*
X36759580Y33761905D02*
X36664342Y33809524D01*
X36664342Y33809524D02*
X35854819Y33809524D01*
X35854819Y34714286D02*
X35854819Y34523810D01*
X35854819Y34523810D02*
X35902438Y34428572D01*
X35902438Y34428572D02*
X35950057Y34380953D01*
X35950057Y34380953D02*
X36092914Y34285715D01*
X36092914Y34285715D02*
X36283390Y34238096D01*
X36283390Y34238096D02*
X36664342Y34238096D01*
X36664342Y34238096D02*
X36759580Y34285715D01*
X36759580Y34285715D02*
X36807200Y34333334D01*
X36807200Y34333334D02*
X36854819Y34428572D01*
X36854819Y34428572D02*
X36854819Y34619048D01*
X36854819Y34619048D02*
X36807200Y34714286D01*
X36807200Y34714286D02*
X36759580Y34761905D01*
X36759580Y34761905D02*
X36664342Y34809524D01*
X36664342Y34809524D02*
X36426247Y34809524D01*
X36426247Y34809524D02*
X36331009Y34761905D01*
X36331009Y34761905D02*
X36283390Y34714286D01*
X36283390Y34714286D02*
X36235771Y34619048D01*
X36235771Y34619048D02*
X36235771Y34428572D01*
X36235771Y34428572D02*
X36283390Y34333334D01*
X36283390Y34333334D02*
X36331009Y34285715D01*
X36331009Y34285715D02*
X36426247Y34238096D01*
X45024819Y38269643D02*
X44548628Y37936310D01*
X45024819Y37698215D02*
X44024819Y37698215D01*
X44024819Y37698215D02*
X44024819Y38079167D01*
X44024819Y38079167D02*
X44072438Y38174405D01*
X44072438Y38174405D02*
X44120057Y38222024D01*
X44120057Y38222024D02*
X44215295Y38269643D01*
X44215295Y38269643D02*
X44358152Y38269643D01*
X44358152Y38269643D02*
X44453390Y38222024D01*
X44453390Y38222024D02*
X44501009Y38174405D01*
X44501009Y38174405D02*
X44548628Y38079167D01*
X44548628Y38079167D02*
X44548628Y37698215D01*
X45024819Y39222024D02*
X45024819Y38650596D01*
X45024819Y38936310D02*
X44024819Y38936310D01*
X44024819Y38936310D02*
X44167676Y38841072D01*
X44167676Y38841072D02*
X44262914Y38745834D01*
X44262914Y38745834D02*
X44310533Y38650596D01*
X45024819Y40174405D02*
X45024819Y39602977D01*
X45024819Y39888691D02*
X44024819Y39888691D01*
X44024819Y39888691D02*
X44167676Y39793453D01*
X44167676Y39793453D02*
X44262914Y39698215D01*
X44262914Y39698215D02*
X44310533Y39602977D01*
X2054819Y29457143D02*
X1578628Y29123810D01*
X2054819Y28885715D02*
X1054819Y28885715D01*
X1054819Y28885715D02*
X1054819Y29266667D01*
X1054819Y29266667D02*
X1102438Y29361905D01*
X1102438Y29361905D02*
X1150057Y29409524D01*
X1150057Y29409524D02*
X1245295Y29457143D01*
X1245295Y29457143D02*
X1388152Y29457143D01*
X1388152Y29457143D02*
X1483390Y29409524D01*
X1483390Y29409524D02*
X1531009Y29361905D01*
X1531009Y29361905D02*
X1578628Y29266667D01*
X1578628Y29266667D02*
X1578628Y28885715D01*
X2054819Y30409524D02*
X2054819Y29838096D01*
X2054819Y30123810D02*
X1054819Y30123810D01*
X1054819Y30123810D02*
X1197676Y30028572D01*
X1197676Y30028572D02*
X1292914Y29933334D01*
X1292914Y29933334D02*
X1340533Y29838096D01*
X1054819Y30742858D02*
X1054819Y31361905D01*
X1054819Y31361905D02*
X1435771Y31028572D01*
X1435771Y31028572D02*
X1435771Y31171429D01*
X1435771Y31171429D02*
X1483390Y31266667D01*
X1483390Y31266667D02*
X1531009Y31314286D01*
X1531009Y31314286D02*
X1626247Y31361905D01*
X1626247Y31361905D02*
X1864342Y31361905D01*
X1864342Y31361905D02*
X1959580Y31314286D01*
X1959580Y31314286D02*
X2007200Y31266667D01*
X2007200Y31266667D02*
X2054819Y31171429D01*
X2054819Y31171429D02*
X2054819Y30885715D01*
X2054819Y30885715D02*
X2007200Y30790477D01*
X2007200Y30790477D02*
X1959580Y30742858D01*
X18857142Y4140420D02*
X18809523Y4092800D01*
X18809523Y4092800D02*
X18666666Y4045181D01*
X18666666Y4045181D02*
X18571428Y4045181D01*
X18571428Y4045181D02*
X18428571Y4092800D01*
X18428571Y4092800D02*
X18333333Y4188039D01*
X18333333Y4188039D02*
X18285714Y4283277D01*
X18285714Y4283277D02*
X18238095Y4473753D01*
X18238095Y4473753D02*
X18238095Y4616610D01*
X18238095Y4616610D02*
X18285714Y4807086D01*
X18285714Y4807086D02*
X18333333Y4902324D01*
X18333333Y4902324D02*
X18428571Y4997562D01*
X18428571Y4997562D02*
X18571428Y5045181D01*
X18571428Y5045181D02*
X18666666Y5045181D01*
X18666666Y5045181D02*
X18809523Y4997562D01*
X18809523Y4997562D02*
X18857142Y4949943D01*
X19809523Y4045181D02*
X19238095Y4045181D01*
X19523809Y4045181D02*
X19523809Y5045181D01*
X19523809Y5045181D02*
X19428571Y4902324D01*
X19428571Y4902324D02*
X19333333Y4807086D01*
X19333333Y4807086D02*
X19238095Y4759467D01*
X20142857Y5045181D02*
X20761904Y5045181D01*
X20761904Y5045181D02*
X20428571Y4664229D01*
X20428571Y4664229D02*
X20571428Y4664229D01*
X20571428Y4664229D02*
X20666666Y4616610D01*
X20666666Y4616610D02*
X20714285Y4568991D01*
X20714285Y4568991D02*
X20761904Y4473753D01*
X20761904Y4473753D02*
X20761904Y4235658D01*
X20761904Y4235658D02*
X20714285Y4140420D01*
X20714285Y4140420D02*
X20666666Y4092800D01*
X20666666Y4092800D02*
X20571428Y4045181D01*
X20571428Y4045181D02*
X20285714Y4045181D01*
X20285714Y4045181D02*
X20190476Y4092800D01*
X20190476Y4092800D02*
X20142857Y4140420D01*
X18457142Y39940420D02*
X18409523Y39892800D01*
X18409523Y39892800D02*
X18266666Y39845181D01*
X18266666Y39845181D02*
X18171428Y39845181D01*
X18171428Y39845181D02*
X18028571Y39892800D01*
X18028571Y39892800D02*
X17933333Y39988039D01*
X17933333Y39988039D02*
X17885714Y40083277D01*
X17885714Y40083277D02*
X17838095Y40273753D01*
X17838095Y40273753D02*
X17838095Y40416610D01*
X17838095Y40416610D02*
X17885714Y40607086D01*
X17885714Y40607086D02*
X17933333Y40702324D01*
X17933333Y40702324D02*
X18028571Y40797562D01*
X18028571Y40797562D02*
X18171428Y40845181D01*
X18171428Y40845181D02*
X18266666Y40845181D01*
X18266666Y40845181D02*
X18409523Y40797562D01*
X18409523Y40797562D02*
X18457142Y40749943D01*
X19409523Y39845181D02*
X18838095Y39845181D01*
X19123809Y39845181D02*
X19123809Y40845181D01*
X19123809Y40845181D02*
X19028571Y40702324D01*
X19028571Y40702324D02*
X18933333Y40607086D01*
X18933333Y40607086D02*
X18838095Y40559467D01*
X19980952Y40416610D02*
X19885714Y40464229D01*
X19885714Y40464229D02*
X19838095Y40511848D01*
X19838095Y40511848D02*
X19790476Y40607086D01*
X19790476Y40607086D02*
X19790476Y40654705D01*
X19790476Y40654705D02*
X19838095Y40749943D01*
X19838095Y40749943D02*
X19885714Y40797562D01*
X19885714Y40797562D02*
X19980952Y40845181D01*
X19980952Y40845181D02*
X20171428Y40845181D01*
X20171428Y40845181D02*
X20266666Y40797562D01*
X20266666Y40797562D02*
X20314285Y40749943D01*
X20314285Y40749943D02*
X20361904Y40654705D01*
X20361904Y40654705D02*
X20361904Y40607086D01*
X20361904Y40607086D02*
X20314285Y40511848D01*
X20314285Y40511848D02*
X20266666Y40464229D01*
X20266666Y40464229D02*
X20171428Y40416610D01*
X20171428Y40416610D02*
X19980952Y40416610D01*
X19980952Y40416610D02*
X19885714Y40368991D01*
X19885714Y40368991D02*
X19838095Y40321372D01*
X19838095Y40321372D02*
X19790476Y40226134D01*
X19790476Y40226134D02*
X19790476Y40035658D01*
X19790476Y40035658D02*
X19838095Y39940420D01*
X19838095Y39940420D02*
X19885714Y39892800D01*
X19885714Y39892800D02*
X19980952Y39845181D01*
X19980952Y39845181D02*
X20171428Y39845181D01*
X20171428Y39845181D02*
X20266666Y39892800D01*
X20266666Y39892800D02*
X20314285Y39940420D01*
X20314285Y39940420D02*
X20361904Y40035658D01*
X20361904Y40035658D02*
X20361904Y40226134D01*
X20361904Y40226134D02*
X20314285Y40321372D01*
X20314285Y40321372D02*
X20266666Y40368991D01*
X20266666Y40368991D02*
X20171428Y40416610D01*
X9633333Y31040420D02*
X9585714Y30992800D01*
X9585714Y30992800D02*
X9442857Y30945181D01*
X9442857Y30945181D02*
X9347619Y30945181D01*
X9347619Y30945181D02*
X9204762Y30992800D01*
X9204762Y30992800D02*
X9109524Y31088039D01*
X9109524Y31088039D02*
X9061905Y31183277D01*
X9061905Y31183277D02*
X9014286Y31373753D01*
X9014286Y31373753D02*
X9014286Y31516610D01*
X9014286Y31516610D02*
X9061905Y31707086D01*
X9061905Y31707086D02*
X9109524Y31802324D01*
X9109524Y31802324D02*
X9204762Y31897562D01*
X9204762Y31897562D02*
X9347619Y31945181D01*
X9347619Y31945181D02*
X9442857Y31945181D01*
X9442857Y31945181D02*
X9585714Y31897562D01*
X9585714Y31897562D02*
X9633333Y31849943D01*
X10538095Y31945181D02*
X10061905Y31945181D01*
X10061905Y31945181D02*
X10014286Y31468991D01*
X10014286Y31468991D02*
X10061905Y31516610D01*
X10061905Y31516610D02*
X10157143Y31564229D01*
X10157143Y31564229D02*
X10395238Y31564229D01*
X10395238Y31564229D02*
X10490476Y31516610D01*
X10490476Y31516610D02*
X10538095Y31468991D01*
X10538095Y31468991D02*
X10585714Y31373753D01*
X10585714Y31373753D02*
X10585714Y31135658D01*
X10585714Y31135658D02*
X10538095Y31040420D01*
X10538095Y31040420D02*
X10490476Y30992800D01*
X10490476Y30992800D02*
X10395238Y30945181D01*
X10395238Y30945181D02*
X10157143Y30945181D01*
X10157143Y30945181D02*
X10061905Y30992800D01*
X10061905Y30992800D02*
X10014286Y31040420D01*
X15261905Y26845181D02*
X15261905Y27845181D01*
X15261905Y27845181D02*
X15500000Y27845181D01*
X15500000Y27845181D02*
X15642857Y27797562D01*
X15642857Y27797562D02*
X15738095Y27702324D01*
X15738095Y27702324D02*
X15785714Y27607086D01*
X15785714Y27607086D02*
X15833333Y27416610D01*
X15833333Y27416610D02*
X15833333Y27273753D01*
X15833333Y27273753D02*
X15785714Y27083277D01*
X15785714Y27083277D02*
X15738095Y26988039D01*
X15738095Y26988039D02*
X15642857Y26892800D01*
X15642857Y26892800D02*
X15500000Y26845181D01*
X15500000Y26845181D02*
X15261905Y26845181D01*
X16785714Y26845181D02*
X16214286Y26845181D01*
X16500000Y26845181D02*
X16500000Y27845181D01*
X16500000Y27845181D02*
X16404762Y27702324D01*
X16404762Y27702324D02*
X16309524Y27607086D01*
X16309524Y27607086D02*
X16214286Y27559467D01*
X40554819Y2157143D02*
X40078628Y1823810D01*
X40554819Y1585715D02*
X39554819Y1585715D01*
X39554819Y1585715D02*
X39554819Y1966667D01*
X39554819Y1966667D02*
X39602438Y2061905D01*
X39602438Y2061905D02*
X39650057Y2109524D01*
X39650057Y2109524D02*
X39745295Y2157143D01*
X39745295Y2157143D02*
X39888152Y2157143D01*
X39888152Y2157143D02*
X39983390Y2109524D01*
X39983390Y2109524D02*
X40031009Y2061905D01*
X40031009Y2061905D02*
X40078628Y1966667D01*
X40078628Y1966667D02*
X40078628Y1585715D01*
X40554819Y3109524D02*
X40554819Y2538096D01*
X40554819Y2823810D02*
X39554819Y2823810D01*
X39554819Y2823810D02*
X39697676Y2728572D01*
X39697676Y2728572D02*
X39792914Y2633334D01*
X39792914Y2633334D02*
X39840533Y2538096D01*
X39983390Y3680953D02*
X39935771Y3585715D01*
X39935771Y3585715D02*
X39888152Y3538096D01*
X39888152Y3538096D02*
X39792914Y3490477D01*
X39792914Y3490477D02*
X39745295Y3490477D01*
X39745295Y3490477D02*
X39650057Y3538096D01*
X39650057Y3538096D02*
X39602438Y3585715D01*
X39602438Y3585715D02*
X39554819Y3680953D01*
X39554819Y3680953D02*
X39554819Y3871429D01*
X39554819Y3871429D02*
X39602438Y3966667D01*
X39602438Y3966667D02*
X39650057Y4014286D01*
X39650057Y4014286D02*
X39745295Y4061905D01*
X39745295Y4061905D02*
X39792914Y4061905D01*
X39792914Y4061905D02*
X39888152Y4014286D01*
X39888152Y4014286D02*
X39935771Y3966667D01*
X39935771Y3966667D02*
X39983390Y3871429D01*
X39983390Y3871429D02*
X39983390Y3680953D01*
X39983390Y3680953D02*
X40031009Y3585715D01*
X40031009Y3585715D02*
X40078628Y3538096D01*
X40078628Y3538096D02*
X40173866Y3490477D01*
X40173866Y3490477D02*
X40364342Y3490477D01*
X40364342Y3490477D02*
X40459580Y3538096D01*
X40459580Y3538096D02*
X40507200Y3585715D01*
X40507200Y3585715D02*
X40554819Y3680953D01*
X40554819Y3680953D02*
X40554819Y3871429D01*
X40554819Y3871429D02*
X40507200Y3966667D01*
X40507200Y3966667D02*
X40459580Y4014286D01*
X40459580Y4014286D02*
X40364342Y4061905D01*
X40364342Y4061905D02*
X40173866Y4061905D01*
X40173866Y4061905D02*
X40078628Y4014286D01*
X40078628Y4014286D02*
X40031009Y3966667D01*
X40031009Y3966667D02*
X39983390Y3871429D01*
X61116667Y10292800D02*
X61259524Y10245181D01*
X61259524Y10245181D02*
X61497619Y10245181D01*
X61497619Y10245181D02*
X61592857Y10292800D01*
X61592857Y10292800D02*
X61640476Y10340420D01*
X61640476Y10340420D02*
X61688095Y10435658D01*
X61688095Y10435658D02*
X61688095Y10530896D01*
X61688095Y10530896D02*
X61640476Y10626134D01*
X61640476Y10626134D02*
X61592857Y10673753D01*
X61592857Y10673753D02*
X61497619Y10721372D01*
X61497619Y10721372D02*
X61307143Y10768991D01*
X61307143Y10768991D02*
X61211905Y10816610D01*
X61211905Y10816610D02*
X61164286Y10864229D01*
X61164286Y10864229D02*
X61116667Y10959467D01*
X61116667Y10959467D02*
X61116667Y11054705D01*
X61116667Y11054705D02*
X61164286Y11149943D01*
X61164286Y11149943D02*
X61211905Y11197562D01*
X61211905Y11197562D02*
X61307143Y11245181D01*
X61307143Y11245181D02*
X61545238Y11245181D01*
X61545238Y11245181D02*
X61688095Y11197562D01*
X62021429Y11245181D02*
X62259524Y10245181D01*
X62259524Y10245181D02*
X62450000Y10959467D01*
X62450000Y10959467D02*
X62640476Y10245181D01*
X62640476Y10245181D02*
X62878572Y11245181D01*
X63211905Y11149943D02*
X63259524Y11197562D01*
X63259524Y11197562D02*
X63354762Y11245181D01*
X63354762Y11245181D02*
X63592857Y11245181D01*
X63592857Y11245181D02*
X63688095Y11197562D01*
X63688095Y11197562D02*
X63735714Y11149943D01*
X63735714Y11149943D02*
X63783333Y11054705D01*
X63783333Y11054705D02*
X63783333Y10959467D01*
X63783333Y10959467D02*
X63735714Y10816610D01*
X63735714Y10816610D02*
X63164286Y10245181D01*
X63164286Y10245181D02*
X63783333Y10245181D01*
X42766666Y17945181D02*
X42766666Y17230896D01*
X42766666Y17230896D02*
X42719047Y17088039D01*
X42719047Y17088039D02*
X42623809Y16992800D01*
X42623809Y16992800D02*
X42480952Y16945181D01*
X42480952Y16945181D02*
X42385714Y16945181D01*
X43147619Y17945181D02*
X43766666Y17945181D01*
X43766666Y17945181D02*
X43433333Y17564229D01*
X43433333Y17564229D02*
X43576190Y17564229D01*
X43576190Y17564229D02*
X43671428Y17516610D01*
X43671428Y17516610D02*
X43719047Y17468991D01*
X43719047Y17468991D02*
X43766666Y17373753D01*
X43766666Y17373753D02*
X43766666Y17135658D01*
X43766666Y17135658D02*
X43719047Y17040420D01*
X43719047Y17040420D02*
X43671428Y16992800D01*
X43671428Y16992800D02*
X43576190Y16945181D01*
X43576190Y16945181D02*
X43290476Y16945181D01*
X43290476Y16945181D02*
X43195238Y16992800D01*
X43195238Y16992800D02*
X43147619Y17040420D01*
X50154819Y35357143D02*
X49678628Y35023810D01*
X50154819Y34785715D02*
X49154819Y34785715D01*
X49154819Y34785715D02*
X49154819Y35166667D01*
X49154819Y35166667D02*
X49202438Y35261905D01*
X49202438Y35261905D02*
X49250057Y35309524D01*
X49250057Y35309524D02*
X49345295Y35357143D01*
X49345295Y35357143D02*
X49488152Y35357143D01*
X49488152Y35357143D02*
X49583390Y35309524D01*
X49583390Y35309524D02*
X49631009Y35261905D01*
X49631009Y35261905D02*
X49678628Y35166667D01*
X49678628Y35166667D02*
X49678628Y34785715D01*
X50154819Y36309524D02*
X50154819Y35738096D01*
X50154819Y36023810D02*
X49154819Y36023810D01*
X49154819Y36023810D02*
X49297676Y35928572D01*
X49297676Y35928572D02*
X49392914Y35833334D01*
X49392914Y35833334D02*
X49440533Y35738096D01*
X49154819Y36928572D02*
X49154819Y37023810D01*
X49154819Y37023810D02*
X49202438Y37119048D01*
X49202438Y37119048D02*
X49250057Y37166667D01*
X49250057Y37166667D02*
X49345295Y37214286D01*
X49345295Y37214286D02*
X49535771Y37261905D01*
X49535771Y37261905D02*
X49773866Y37261905D01*
X49773866Y37261905D02*
X49964342Y37214286D01*
X49964342Y37214286D02*
X50059580Y37166667D01*
X50059580Y37166667D02*
X50107200Y37119048D01*
X50107200Y37119048D02*
X50154819Y37023810D01*
X50154819Y37023810D02*
X50154819Y36928572D01*
X50154819Y36928572D02*
X50107200Y36833334D01*
X50107200Y36833334D02*
X50059580Y36785715D01*
X50059580Y36785715D02*
X49964342Y36738096D01*
X49964342Y36738096D02*
X49773866Y36690477D01*
X49773866Y36690477D02*
X49535771Y36690477D01*
X49535771Y36690477D02*
X49345295Y36738096D01*
X49345295Y36738096D02*
X49250057Y36785715D01*
X49250057Y36785715D02*
X49202438Y36833334D01*
X49202438Y36833334D02*
X49154819Y36928572D01*
X16659580Y17733334D02*
X16707200Y17685715D01*
X16707200Y17685715D02*
X16754819Y17542858D01*
X16754819Y17542858D02*
X16754819Y17447620D01*
X16754819Y17447620D02*
X16707200Y17304763D01*
X16707200Y17304763D02*
X16611961Y17209525D01*
X16611961Y17209525D02*
X16516723Y17161906D01*
X16516723Y17161906D02*
X16326247Y17114287D01*
X16326247Y17114287D02*
X16183390Y17114287D01*
X16183390Y17114287D02*
X15992914Y17161906D01*
X15992914Y17161906D02*
X15897676Y17209525D01*
X15897676Y17209525D02*
X15802438Y17304763D01*
X15802438Y17304763D02*
X15754819Y17447620D01*
X15754819Y17447620D02*
X15754819Y17542858D01*
X15754819Y17542858D02*
X15802438Y17685715D01*
X15802438Y17685715D02*
X15850057Y17733334D01*
X16183390Y18304763D02*
X16135771Y18209525D01*
X16135771Y18209525D02*
X16088152Y18161906D01*
X16088152Y18161906D02*
X15992914Y18114287D01*
X15992914Y18114287D02*
X15945295Y18114287D01*
X15945295Y18114287D02*
X15850057Y18161906D01*
X15850057Y18161906D02*
X15802438Y18209525D01*
X15802438Y18209525D02*
X15754819Y18304763D01*
X15754819Y18304763D02*
X15754819Y18495239D01*
X15754819Y18495239D02*
X15802438Y18590477D01*
X15802438Y18590477D02*
X15850057Y18638096D01*
X15850057Y18638096D02*
X15945295Y18685715D01*
X15945295Y18685715D02*
X15992914Y18685715D01*
X15992914Y18685715D02*
X16088152Y18638096D01*
X16088152Y18638096D02*
X16135771Y18590477D01*
X16135771Y18590477D02*
X16183390Y18495239D01*
X16183390Y18495239D02*
X16183390Y18304763D01*
X16183390Y18304763D02*
X16231009Y18209525D01*
X16231009Y18209525D02*
X16278628Y18161906D01*
X16278628Y18161906D02*
X16373866Y18114287D01*
X16373866Y18114287D02*
X16564342Y18114287D01*
X16564342Y18114287D02*
X16659580Y18161906D01*
X16659580Y18161906D02*
X16707200Y18209525D01*
X16707200Y18209525D02*
X16754819Y18304763D01*
X16754819Y18304763D02*
X16754819Y18495239D01*
X16754819Y18495239D02*
X16707200Y18590477D01*
X16707200Y18590477D02*
X16659580Y18638096D01*
X16659580Y18638096D02*
X16564342Y18685715D01*
X16564342Y18685715D02*
X16373866Y18685715D01*
X16373866Y18685715D02*
X16278628Y18638096D01*
X16278628Y18638096D02*
X16231009Y18590477D01*
X16231009Y18590477D02*
X16183390Y18495239D01*
X64154819Y41933334D02*
X63678628Y41600001D01*
X64154819Y41361906D02*
X63154819Y41361906D01*
X63154819Y41361906D02*
X63154819Y41742858D01*
X63154819Y41742858D02*
X63202438Y41838096D01*
X63202438Y41838096D02*
X63250057Y41885715D01*
X63250057Y41885715D02*
X63345295Y41933334D01*
X63345295Y41933334D02*
X63488152Y41933334D01*
X63488152Y41933334D02*
X63583390Y41885715D01*
X63583390Y41885715D02*
X63631009Y41838096D01*
X63631009Y41838096D02*
X63678628Y41742858D01*
X63678628Y41742858D02*
X63678628Y41361906D01*
X63154819Y42790477D02*
X63154819Y42600001D01*
X63154819Y42600001D02*
X63202438Y42504763D01*
X63202438Y42504763D02*
X63250057Y42457144D01*
X63250057Y42457144D02*
X63392914Y42361906D01*
X63392914Y42361906D02*
X63583390Y42314287D01*
X63583390Y42314287D02*
X63964342Y42314287D01*
X63964342Y42314287D02*
X64059580Y42361906D01*
X64059580Y42361906D02*
X64107200Y42409525D01*
X64107200Y42409525D02*
X64154819Y42504763D01*
X64154819Y42504763D02*
X64154819Y42695239D01*
X64154819Y42695239D02*
X64107200Y42790477D01*
X64107200Y42790477D02*
X64059580Y42838096D01*
X64059580Y42838096D02*
X63964342Y42885715D01*
X63964342Y42885715D02*
X63726247Y42885715D01*
X63726247Y42885715D02*
X63631009Y42838096D01*
X63631009Y42838096D02*
X63583390Y42790477D01*
X63583390Y42790477D02*
X63535771Y42695239D01*
X63535771Y42695239D02*
X63535771Y42504763D01*
X63535771Y42504763D02*
X63583390Y42409525D01*
X63583390Y42409525D02*
X63631009Y42361906D01*
X63631009Y42361906D02*
X63726247Y42314287D01*
X55238095Y31545181D02*
X55238095Y30735658D01*
X55238095Y30735658D02*
X55285714Y30640420D01*
X55285714Y30640420D02*
X55333333Y30592800D01*
X55333333Y30592800D02*
X55428571Y30545181D01*
X55428571Y30545181D02*
X55619047Y30545181D01*
X55619047Y30545181D02*
X55714285Y30592800D01*
X55714285Y30592800D02*
X55761904Y30640420D01*
X55761904Y30640420D02*
X55809523Y30735658D01*
X55809523Y30735658D02*
X55809523Y31545181D01*
X56761904Y31545181D02*
X56285714Y31545181D01*
X56285714Y31545181D02*
X56238095Y31068991D01*
X56238095Y31068991D02*
X56285714Y31116610D01*
X56285714Y31116610D02*
X56380952Y31164229D01*
X56380952Y31164229D02*
X56619047Y31164229D01*
X56619047Y31164229D02*
X56714285Y31116610D01*
X56714285Y31116610D02*
X56761904Y31068991D01*
X56761904Y31068991D02*
X56809523Y30973753D01*
X56809523Y30973753D02*
X56809523Y30735658D01*
X56809523Y30735658D02*
X56761904Y30640420D01*
X56761904Y30640420D02*
X56714285Y30592800D01*
X56714285Y30592800D02*
X56619047Y30545181D01*
X56619047Y30545181D02*
X56380952Y30545181D01*
X56380952Y30545181D02*
X56285714Y30592800D01*
X56285714Y30592800D02*
X56238095Y30640420D01*
X26659580Y53233334D02*
X26707200Y53185715D01*
X26707200Y53185715D02*
X26754819Y53042858D01*
X26754819Y53042858D02*
X26754819Y52947620D01*
X26754819Y52947620D02*
X26707200Y52804763D01*
X26707200Y52804763D02*
X26611961Y52709525D01*
X26611961Y52709525D02*
X26516723Y52661906D01*
X26516723Y52661906D02*
X26326247Y52614287D01*
X26326247Y52614287D02*
X26183390Y52614287D01*
X26183390Y52614287D02*
X25992914Y52661906D01*
X25992914Y52661906D02*
X25897676Y52709525D01*
X25897676Y52709525D02*
X25802438Y52804763D01*
X25802438Y52804763D02*
X25754819Y52947620D01*
X25754819Y52947620D02*
X25754819Y53042858D01*
X25754819Y53042858D02*
X25802438Y53185715D01*
X25802438Y53185715D02*
X25850057Y53233334D01*
X26754819Y54185715D02*
X26754819Y53614287D01*
X26754819Y53900001D02*
X25754819Y53900001D01*
X25754819Y53900001D02*
X25897676Y53804763D01*
X25897676Y53804763D02*
X25992914Y53709525D01*
X25992914Y53709525D02*
X26040533Y53614287D01*
X56624819Y25057143D02*
X56148628Y24723810D01*
X56624819Y24485715D02*
X55624819Y24485715D01*
X55624819Y24485715D02*
X55624819Y24866667D01*
X55624819Y24866667D02*
X55672438Y24961905D01*
X55672438Y24961905D02*
X55720057Y25009524D01*
X55720057Y25009524D02*
X55815295Y25057143D01*
X55815295Y25057143D02*
X55958152Y25057143D01*
X55958152Y25057143D02*
X56053390Y25009524D01*
X56053390Y25009524D02*
X56101009Y24961905D01*
X56101009Y24961905D02*
X56148628Y24866667D01*
X56148628Y24866667D02*
X56148628Y24485715D01*
X56624819Y26009524D02*
X56624819Y25438096D01*
X56624819Y25723810D02*
X55624819Y25723810D01*
X55624819Y25723810D02*
X55767676Y25628572D01*
X55767676Y25628572D02*
X55862914Y25533334D01*
X55862914Y25533334D02*
X55910533Y25438096D01*
X55624819Y26866667D02*
X55624819Y26676191D01*
X55624819Y26676191D02*
X55672438Y26580953D01*
X55672438Y26580953D02*
X55720057Y26533334D01*
X55720057Y26533334D02*
X55862914Y26438096D01*
X55862914Y26438096D02*
X56053390Y26390477D01*
X56053390Y26390477D02*
X56434342Y26390477D01*
X56434342Y26390477D02*
X56529580Y26438096D01*
X56529580Y26438096D02*
X56577200Y26485715D01*
X56577200Y26485715D02*
X56624819Y26580953D01*
X56624819Y26580953D02*
X56624819Y26771429D01*
X56624819Y26771429D02*
X56577200Y26866667D01*
X56577200Y26866667D02*
X56529580Y26914286D01*
X56529580Y26914286D02*
X56434342Y26961905D01*
X56434342Y26961905D02*
X56196247Y26961905D01*
X56196247Y26961905D02*
X56101009Y26914286D01*
X56101009Y26914286D02*
X56053390Y26866667D01*
X56053390Y26866667D02*
X56005771Y26771429D01*
X56005771Y26771429D02*
X56005771Y26580953D01*
X56005771Y26580953D02*
X56053390Y26485715D01*
X56053390Y26485715D02*
X56101009Y26438096D01*
X56101009Y26438096D02*
X56196247Y26390477D01*
X42154819Y45833334D02*
X41678628Y45500001D01*
X42154819Y45261906D02*
X41154819Y45261906D01*
X41154819Y45261906D02*
X41154819Y45642858D01*
X41154819Y45642858D02*
X41202438Y45738096D01*
X41202438Y45738096D02*
X41250057Y45785715D01*
X41250057Y45785715D02*
X41345295Y45833334D01*
X41345295Y45833334D02*
X41488152Y45833334D01*
X41488152Y45833334D02*
X41583390Y45785715D01*
X41583390Y45785715D02*
X41631009Y45738096D01*
X41631009Y45738096D02*
X41678628Y45642858D01*
X41678628Y45642858D02*
X41678628Y45261906D01*
X41154819Y46166668D02*
X41154819Y46833334D01*
X41154819Y46833334D02*
X42154819Y46404763D01*
X53259580Y25057143D02*
X53307200Y25009524D01*
X53307200Y25009524D02*
X53354819Y24866667D01*
X53354819Y24866667D02*
X53354819Y24771429D01*
X53354819Y24771429D02*
X53307200Y24628572D01*
X53307200Y24628572D02*
X53211961Y24533334D01*
X53211961Y24533334D02*
X53116723Y24485715D01*
X53116723Y24485715D02*
X52926247Y24438096D01*
X52926247Y24438096D02*
X52783390Y24438096D01*
X52783390Y24438096D02*
X52592914Y24485715D01*
X52592914Y24485715D02*
X52497676Y24533334D01*
X52497676Y24533334D02*
X52402438Y24628572D01*
X52402438Y24628572D02*
X52354819Y24771429D01*
X52354819Y24771429D02*
X52354819Y24866667D01*
X52354819Y24866667D02*
X52402438Y25009524D01*
X52402438Y25009524D02*
X52450057Y25057143D01*
X53354819Y26009524D02*
X53354819Y25438096D01*
X53354819Y25723810D02*
X52354819Y25723810D01*
X52354819Y25723810D02*
X52497676Y25628572D01*
X52497676Y25628572D02*
X52592914Y25533334D01*
X52592914Y25533334D02*
X52640533Y25438096D01*
X53354819Y26961905D02*
X53354819Y26390477D01*
X53354819Y26676191D02*
X52354819Y26676191D01*
X52354819Y26676191D02*
X52497676Y26580953D01*
X52497676Y26580953D02*
X52592914Y26485715D01*
X52592914Y26485715D02*
X52640533Y26390477D01*
X55933333Y9340420D02*
X55885714Y9292800D01*
X55885714Y9292800D02*
X55742857Y9245181D01*
X55742857Y9245181D02*
X55647619Y9245181D01*
X55647619Y9245181D02*
X55504762Y9292800D01*
X55504762Y9292800D02*
X55409524Y9388039D01*
X55409524Y9388039D02*
X55361905Y9483277D01*
X55361905Y9483277D02*
X55314286Y9673753D01*
X55314286Y9673753D02*
X55314286Y9816610D01*
X55314286Y9816610D02*
X55361905Y10007086D01*
X55361905Y10007086D02*
X55409524Y10102324D01*
X55409524Y10102324D02*
X55504762Y10197562D01*
X55504762Y10197562D02*
X55647619Y10245181D01*
X55647619Y10245181D02*
X55742857Y10245181D01*
X55742857Y10245181D02*
X55885714Y10197562D01*
X55885714Y10197562D02*
X55933333Y10149943D01*
X56314286Y10149943D02*
X56361905Y10197562D01*
X56361905Y10197562D02*
X56457143Y10245181D01*
X56457143Y10245181D02*
X56695238Y10245181D01*
X56695238Y10245181D02*
X56790476Y10197562D01*
X56790476Y10197562D02*
X56838095Y10149943D01*
X56838095Y10149943D02*
X56885714Y10054705D01*
X56885714Y10054705D02*
X56885714Y9959467D01*
X56885714Y9959467D02*
X56838095Y9816610D01*
X56838095Y9816610D02*
X56266667Y9245181D01*
X56266667Y9245181D02*
X56885714Y9245181D01*
X56833333Y36340420D02*
X56785714Y36292800D01*
X56785714Y36292800D02*
X56642857Y36245181D01*
X56642857Y36245181D02*
X56547619Y36245181D01*
X56547619Y36245181D02*
X56404762Y36292800D01*
X56404762Y36292800D02*
X56309524Y36388039D01*
X56309524Y36388039D02*
X56261905Y36483277D01*
X56261905Y36483277D02*
X56214286Y36673753D01*
X56214286Y36673753D02*
X56214286Y36816610D01*
X56214286Y36816610D02*
X56261905Y37007086D01*
X56261905Y37007086D02*
X56309524Y37102324D01*
X56309524Y37102324D02*
X56404762Y37197562D01*
X56404762Y37197562D02*
X56547619Y37245181D01*
X56547619Y37245181D02*
X56642857Y37245181D01*
X56642857Y37245181D02*
X56785714Y37197562D01*
X56785714Y37197562D02*
X56833333Y37149943D01*
X57309524Y36245181D02*
X57500000Y36245181D01*
X57500000Y36245181D02*
X57595238Y36292800D01*
X57595238Y36292800D02*
X57642857Y36340420D01*
X57642857Y36340420D02*
X57738095Y36483277D01*
X57738095Y36483277D02*
X57785714Y36673753D01*
X57785714Y36673753D02*
X57785714Y37054705D01*
X57785714Y37054705D02*
X57738095Y37149943D01*
X57738095Y37149943D02*
X57690476Y37197562D01*
X57690476Y37197562D02*
X57595238Y37245181D01*
X57595238Y37245181D02*
X57404762Y37245181D01*
X57404762Y37245181D02*
X57309524Y37197562D01*
X57309524Y37197562D02*
X57261905Y37149943D01*
X57261905Y37149943D02*
X57214286Y37054705D01*
X57214286Y37054705D02*
X57214286Y36816610D01*
X57214286Y36816610D02*
X57261905Y36721372D01*
X57261905Y36721372D02*
X57309524Y36673753D01*
X57309524Y36673753D02*
X57404762Y36626134D01*
X57404762Y36626134D02*
X57595238Y36626134D01*
X57595238Y36626134D02*
X57690476Y36673753D01*
X57690476Y36673753D02*
X57738095Y36721372D01*
X57738095Y36721372D02*
X57785714Y36816610D01*
X17844700Y45466668D02*
X17892319Y45609525D01*
X17892319Y45609525D02*
X17892319Y45847620D01*
X17892319Y45847620D02*
X17844700Y45942858D01*
X17844700Y45942858D02*
X17797080Y45990477D01*
X17797080Y45990477D02*
X17701842Y46038096D01*
X17701842Y46038096D02*
X17606604Y46038096D01*
X17606604Y46038096D02*
X17511366Y45990477D01*
X17511366Y45990477D02*
X17463747Y45942858D01*
X17463747Y45942858D02*
X17416128Y45847620D01*
X17416128Y45847620D02*
X17368509Y45657144D01*
X17368509Y45657144D02*
X17320890Y45561906D01*
X17320890Y45561906D02*
X17273271Y45514287D01*
X17273271Y45514287D02*
X17178033Y45466668D01*
X17178033Y45466668D02*
X17082795Y45466668D01*
X17082795Y45466668D02*
X16987557Y45514287D01*
X16987557Y45514287D02*
X16939938Y45561906D01*
X16939938Y45561906D02*
X16892319Y45657144D01*
X16892319Y45657144D02*
X16892319Y45895239D01*
X16892319Y45895239D02*
X16939938Y46038096D01*
X16892319Y46371430D02*
X17892319Y46609525D01*
X17892319Y46609525D02*
X17178033Y46800001D01*
X17178033Y46800001D02*
X17892319Y46990477D01*
X17892319Y46990477D02*
X16892319Y47228572D01*
X16892319Y47514287D02*
X16892319Y48133334D01*
X16892319Y48133334D02*
X17273271Y47800001D01*
X17273271Y47800001D02*
X17273271Y47942858D01*
X17273271Y47942858D02*
X17320890Y48038096D01*
X17320890Y48038096D02*
X17368509Y48085715D01*
X17368509Y48085715D02*
X17463747Y48133334D01*
X17463747Y48133334D02*
X17701842Y48133334D01*
X17701842Y48133334D02*
X17797080Y48085715D01*
X17797080Y48085715D02*
X17844700Y48038096D01*
X17844700Y48038096D02*
X17892319Y47942858D01*
X17892319Y47942858D02*
X17892319Y47657144D01*
X17892319Y47657144D02*
X17844700Y47561906D01*
X17844700Y47561906D02*
X17797080Y47514287D01*
X54459580Y16957143D02*
X54507200Y16909524D01*
X54507200Y16909524D02*
X54554819Y16766667D01*
X54554819Y16766667D02*
X54554819Y16671429D01*
X54554819Y16671429D02*
X54507200Y16528572D01*
X54507200Y16528572D02*
X54411961Y16433334D01*
X54411961Y16433334D02*
X54316723Y16385715D01*
X54316723Y16385715D02*
X54126247Y16338096D01*
X54126247Y16338096D02*
X53983390Y16338096D01*
X53983390Y16338096D02*
X53792914Y16385715D01*
X53792914Y16385715D02*
X53697676Y16433334D01*
X53697676Y16433334D02*
X53602438Y16528572D01*
X53602438Y16528572D02*
X53554819Y16671429D01*
X53554819Y16671429D02*
X53554819Y16766667D01*
X53554819Y16766667D02*
X53602438Y16909524D01*
X53602438Y16909524D02*
X53650057Y16957143D01*
X54554819Y17909524D02*
X54554819Y17338096D01*
X54554819Y17623810D02*
X53554819Y17623810D01*
X53554819Y17623810D02*
X53697676Y17528572D01*
X53697676Y17528572D02*
X53792914Y17433334D01*
X53792914Y17433334D02*
X53840533Y17338096D01*
X53650057Y18290477D02*
X53602438Y18338096D01*
X53602438Y18338096D02*
X53554819Y18433334D01*
X53554819Y18433334D02*
X53554819Y18671429D01*
X53554819Y18671429D02*
X53602438Y18766667D01*
X53602438Y18766667D02*
X53650057Y18814286D01*
X53650057Y18814286D02*
X53745295Y18861905D01*
X53745295Y18861905D02*
X53840533Y18861905D01*
X53840533Y18861905D02*
X53983390Y18814286D01*
X53983390Y18814286D02*
X54554819Y18242858D01*
X54554819Y18242858D02*
X54554819Y18861905D01*
X51054819Y29261906D02*
X50054819Y29261906D01*
X50054819Y29261906D02*
X50054819Y29500001D01*
X50054819Y29500001D02*
X50102438Y29642858D01*
X50102438Y29642858D02*
X50197676Y29738096D01*
X50197676Y29738096D02*
X50292914Y29785715D01*
X50292914Y29785715D02*
X50483390Y29833334D01*
X50483390Y29833334D02*
X50626247Y29833334D01*
X50626247Y29833334D02*
X50816723Y29785715D01*
X50816723Y29785715D02*
X50911961Y29738096D01*
X50911961Y29738096D02*
X51007200Y29642858D01*
X51007200Y29642858D02*
X51054819Y29500001D01*
X51054819Y29500001D02*
X51054819Y29261906D01*
X50483390Y30404763D02*
X50435771Y30309525D01*
X50435771Y30309525D02*
X50388152Y30261906D01*
X50388152Y30261906D02*
X50292914Y30214287D01*
X50292914Y30214287D02*
X50245295Y30214287D01*
X50245295Y30214287D02*
X50150057Y30261906D01*
X50150057Y30261906D02*
X50102438Y30309525D01*
X50102438Y30309525D02*
X50054819Y30404763D01*
X50054819Y30404763D02*
X50054819Y30595239D01*
X50054819Y30595239D02*
X50102438Y30690477D01*
X50102438Y30690477D02*
X50150057Y30738096D01*
X50150057Y30738096D02*
X50245295Y30785715D01*
X50245295Y30785715D02*
X50292914Y30785715D01*
X50292914Y30785715D02*
X50388152Y30738096D01*
X50388152Y30738096D02*
X50435771Y30690477D01*
X50435771Y30690477D02*
X50483390Y30595239D01*
X50483390Y30595239D02*
X50483390Y30404763D01*
X50483390Y30404763D02*
X50531009Y30309525D01*
X50531009Y30309525D02*
X50578628Y30261906D01*
X50578628Y30261906D02*
X50673866Y30214287D01*
X50673866Y30214287D02*
X50864342Y30214287D01*
X50864342Y30214287D02*
X50959580Y30261906D01*
X50959580Y30261906D02*
X51007200Y30309525D01*
X51007200Y30309525D02*
X51054819Y30404763D01*
X51054819Y30404763D02*
X51054819Y30595239D01*
X51054819Y30595239D02*
X51007200Y30690477D01*
X51007200Y30690477D02*
X50959580Y30738096D01*
X50959580Y30738096D02*
X50864342Y30785715D01*
X50864342Y30785715D02*
X50673866Y30785715D01*
X50673866Y30785715D02*
X50578628Y30738096D01*
X50578628Y30738096D02*
X50531009Y30690477D01*
X50531009Y30690477D02*
X50483390Y30595239D01*
X42955714Y5845181D02*
X42955714Y6845181D01*
X42955714Y6845181D02*
X43193809Y6845181D01*
X43193809Y6845181D02*
X43336666Y6797562D01*
X43336666Y6797562D02*
X43431904Y6702324D01*
X43431904Y6702324D02*
X43479523Y6607086D01*
X43479523Y6607086D02*
X43527142Y6416610D01*
X43527142Y6416610D02*
X43527142Y6273753D01*
X43527142Y6273753D02*
X43479523Y6083277D01*
X43479523Y6083277D02*
X43431904Y5988039D01*
X43431904Y5988039D02*
X43336666Y5892800D01*
X43336666Y5892800D02*
X43193809Y5845181D01*
X43193809Y5845181D02*
X42955714Y5845181D01*
X44479523Y5845181D02*
X43908095Y5845181D01*
X44193809Y5845181D02*
X44193809Y6845181D01*
X44193809Y6845181D02*
X44098571Y6702324D01*
X44098571Y6702324D02*
X44003333Y6607086D01*
X44003333Y6607086D02*
X43908095Y6559467D01*
X45098571Y6845181D02*
X45193809Y6845181D01*
X45193809Y6845181D02*
X45289047Y6797562D01*
X45289047Y6797562D02*
X45336666Y6749943D01*
X45336666Y6749943D02*
X45384285Y6654705D01*
X45384285Y6654705D02*
X45431904Y6464229D01*
X45431904Y6464229D02*
X45431904Y6226134D01*
X45431904Y6226134D02*
X45384285Y6035658D01*
X45384285Y6035658D02*
X45336666Y5940420D01*
X45336666Y5940420D02*
X45289047Y5892800D01*
X45289047Y5892800D02*
X45193809Y5845181D01*
X45193809Y5845181D02*
X45098571Y5845181D01*
X45098571Y5845181D02*
X45003333Y5892800D01*
X45003333Y5892800D02*
X44955714Y5940420D01*
X44955714Y5940420D02*
X44908095Y6035658D01*
X44908095Y6035658D02*
X44860476Y6226134D01*
X44860476Y6226134D02*
X44860476Y6464229D01*
X44860476Y6464229D02*
X44908095Y6654705D01*
X44908095Y6654705D02*
X44955714Y6749943D01*
X44955714Y6749943D02*
X45003333Y6797562D01*
X45003333Y6797562D02*
X45098571Y6845181D01*
X22333333Y49045181D02*
X22000000Y49521372D01*
X21761905Y49045181D02*
X21761905Y50045181D01*
X21761905Y50045181D02*
X22142857Y50045181D01*
X22142857Y50045181D02*
X22238095Y49997562D01*
X22238095Y49997562D02*
X22285714Y49949943D01*
X22285714Y49949943D02*
X22333333Y49854705D01*
X22333333Y49854705D02*
X22333333Y49711848D01*
X22333333Y49711848D02*
X22285714Y49616610D01*
X22285714Y49616610D02*
X22238095Y49568991D01*
X22238095Y49568991D02*
X22142857Y49521372D01*
X22142857Y49521372D02*
X21761905Y49521372D01*
X22666667Y50045181D02*
X23285714Y50045181D01*
X23285714Y50045181D02*
X22952381Y49664229D01*
X22952381Y49664229D02*
X23095238Y49664229D01*
X23095238Y49664229D02*
X23190476Y49616610D01*
X23190476Y49616610D02*
X23238095Y49568991D01*
X23238095Y49568991D02*
X23285714Y49473753D01*
X23285714Y49473753D02*
X23285714Y49235658D01*
X23285714Y49235658D02*
X23238095Y49140420D01*
X23238095Y49140420D02*
X23190476Y49092800D01*
X23190476Y49092800D02*
X23095238Y49045181D01*
X23095238Y49045181D02*
X22809524Y49045181D01*
X22809524Y49045181D02*
X22714286Y49092800D01*
X22714286Y49092800D02*
X22666667Y49140420D01*
X21254819Y18833334D02*
X20778628Y18500001D01*
X21254819Y18261906D02*
X20254819Y18261906D01*
X20254819Y18261906D02*
X20254819Y18642858D01*
X20254819Y18642858D02*
X20302438Y18738096D01*
X20302438Y18738096D02*
X20350057Y18785715D01*
X20350057Y18785715D02*
X20445295Y18833334D01*
X20445295Y18833334D02*
X20588152Y18833334D01*
X20588152Y18833334D02*
X20683390Y18785715D01*
X20683390Y18785715D02*
X20731009Y18738096D01*
X20731009Y18738096D02*
X20778628Y18642858D01*
X20778628Y18642858D02*
X20778628Y18261906D01*
X21254819Y19309525D02*
X21254819Y19500001D01*
X21254819Y19500001D02*
X21207200Y19595239D01*
X21207200Y19595239D02*
X21159580Y19642858D01*
X21159580Y19642858D02*
X21016723Y19738096D01*
X21016723Y19738096D02*
X20826247Y19785715D01*
X20826247Y19785715D02*
X20445295Y19785715D01*
X20445295Y19785715D02*
X20350057Y19738096D01*
X20350057Y19738096D02*
X20302438Y19690477D01*
X20302438Y19690477D02*
X20254819Y19595239D01*
X20254819Y19595239D02*
X20254819Y19404763D01*
X20254819Y19404763D02*
X20302438Y19309525D01*
X20302438Y19309525D02*
X20350057Y19261906D01*
X20350057Y19261906D02*
X20445295Y19214287D01*
X20445295Y19214287D02*
X20683390Y19214287D01*
X20683390Y19214287D02*
X20778628Y19261906D01*
X20778628Y19261906D02*
X20826247Y19309525D01*
X20826247Y19309525D02*
X20873866Y19404763D01*
X20873866Y19404763D02*
X20873866Y19595239D01*
X20873866Y19595239D02*
X20826247Y19690477D01*
X20826247Y19690477D02*
X20778628Y19738096D01*
X20778628Y19738096D02*
X20683390Y19785715D01*
X15959580Y34494643D02*
X16007200Y34447024D01*
X16007200Y34447024D02*
X16054819Y34304167D01*
X16054819Y34304167D02*
X16054819Y34208929D01*
X16054819Y34208929D02*
X16007200Y34066072D01*
X16007200Y34066072D02*
X15911961Y33970834D01*
X15911961Y33970834D02*
X15816723Y33923215D01*
X15816723Y33923215D02*
X15626247Y33875596D01*
X15626247Y33875596D02*
X15483390Y33875596D01*
X15483390Y33875596D02*
X15292914Y33923215D01*
X15292914Y33923215D02*
X15197676Y33970834D01*
X15197676Y33970834D02*
X15102438Y34066072D01*
X15102438Y34066072D02*
X15054819Y34208929D01*
X15054819Y34208929D02*
X15054819Y34304167D01*
X15054819Y34304167D02*
X15102438Y34447024D01*
X15102438Y34447024D02*
X15150057Y34494643D01*
X15150057Y34875596D02*
X15102438Y34923215D01*
X15102438Y34923215D02*
X15054819Y35018453D01*
X15054819Y35018453D02*
X15054819Y35256548D01*
X15054819Y35256548D02*
X15102438Y35351786D01*
X15102438Y35351786D02*
X15150057Y35399405D01*
X15150057Y35399405D02*
X15245295Y35447024D01*
X15245295Y35447024D02*
X15340533Y35447024D01*
X15340533Y35447024D02*
X15483390Y35399405D01*
X15483390Y35399405D02*
X16054819Y34827977D01*
X16054819Y34827977D02*
X16054819Y35447024D01*
X15054819Y36066072D02*
X15054819Y36161310D01*
X15054819Y36161310D02*
X15102438Y36256548D01*
X15102438Y36256548D02*
X15150057Y36304167D01*
X15150057Y36304167D02*
X15245295Y36351786D01*
X15245295Y36351786D02*
X15435771Y36399405D01*
X15435771Y36399405D02*
X15673866Y36399405D01*
X15673866Y36399405D02*
X15864342Y36351786D01*
X15864342Y36351786D02*
X15959580Y36304167D01*
X15959580Y36304167D02*
X16007200Y36256548D01*
X16007200Y36256548D02*
X16054819Y36161310D01*
X16054819Y36161310D02*
X16054819Y36066072D01*
X16054819Y36066072D02*
X16007200Y35970834D01*
X16007200Y35970834D02*
X15959580Y35923215D01*
X15959580Y35923215D02*
X15864342Y35875596D01*
X15864342Y35875596D02*
X15673866Y35827977D01*
X15673866Y35827977D02*
X15435771Y35827977D01*
X15435771Y35827977D02*
X15245295Y35875596D01*
X15245295Y35875596D02*
X15150057Y35923215D01*
X15150057Y35923215D02*
X15102438Y35970834D01*
X15102438Y35970834D02*
X15054819Y36066072D01*
X66238095Y48545181D02*
X66238095Y49545181D01*
X66238095Y49068991D02*
X66809523Y49068991D01*
X66809523Y48545181D02*
X66809523Y49545181D01*
X67809523Y48545181D02*
X67238095Y48545181D01*
X67523809Y48545181D02*
X67523809Y49545181D01*
X67523809Y49545181D02*
X67428571Y49402324D01*
X67428571Y49402324D02*
X67333333Y49307086D01*
X67333333Y49307086D02*
X67238095Y49259467D01*
X22959580Y30357143D02*
X23007200Y30309524D01*
X23007200Y30309524D02*
X23054819Y30166667D01*
X23054819Y30166667D02*
X23054819Y30071429D01*
X23054819Y30071429D02*
X23007200Y29928572D01*
X23007200Y29928572D02*
X22911961Y29833334D01*
X22911961Y29833334D02*
X22816723Y29785715D01*
X22816723Y29785715D02*
X22626247Y29738096D01*
X22626247Y29738096D02*
X22483390Y29738096D01*
X22483390Y29738096D02*
X22292914Y29785715D01*
X22292914Y29785715D02*
X22197676Y29833334D01*
X22197676Y29833334D02*
X22102438Y29928572D01*
X22102438Y29928572D02*
X22054819Y30071429D01*
X22054819Y30071429D02*
X22054819Y30166667D01*
X22054819Y30166667D02*
X22102438Y30309524D01*
X22102438Y30309524D02*
X22150057Y30357143D01*
X23054819Y31309524D02*
X23054819Y30738096D01*
X23054819Y31023810D02*
X22054819Y31023810D01*
X22054819Y31023810D02*
X22197676Y30928572D01*
X22197676Y30928572D02*
X22292914Y30833334D01*
X22292914Y30833334D02*
X22340533Y30738096D01*
X23054819Y31785715D02*
X23054819Y31976191D01*
X23054819Y31976191D02*
X23007200Y32071429D01*
X23007200Y32071429D02*
X22959580Y32119048D01*
X22959580Y32119048D02*
X22816723Y32214286D01*
X22816723Y32214286D02*
X22626247Y32261905D01*
X22626247Y32261905D02*
X22245295Y32261905D01*
X22245295Y32261905D02*
X22150057Y32214286D01*
X22150057Y32214286D02*
X22102438Y32166667D01*
X22102438Y32166667D02*
X22054819Y32071429D01*
X22054819Y32071429D02*
X22054819Y31880953D01*
X22054819Y31880953D02*
X22102438Y31785715D01*
X22102438Y31785715D02*
X22150057Y31738096D01*
X22150057Y31738096D02*
X22245295Y31690477D01*
X22245295Y31690477D02*
X22483390Y31690477D01*
X22483390Y31690477D02*
X22578628Y31738096D01*
X22578628Y31738096D02*
X22626247Y31785715D01*
X22626247Y31785715D02*
X22673866Y31880953D01*
X22673866Y31880953D02*
X22673866Y32071429D01*
X22673866Y32071429D02*
X22626247Y32166667D01*
X22626247Y32166667D02*
X22578628Y32214286D01*
X22578628Y32214286D02*
X22483390Y32261905D01*
X43204761Y9949943D02*
X43109523Y9997562D01*
X43109523Y9997562D02*
X43014285Y10092800D01*
X43014285Y10092800D02*
X42871428Y10235658D01*
X42871428Y10235658D02*
X42776190Y10283277D01*
X42776190Y10283277D02*
X42680952Y10283277D01*
X42728571Y10045181D02*
X42633333Y10092800D01*
X42633333Y10092800D02*
X42538095Y10188039D01*
X42538095Y10188039D02*
X42490476Y10378515D01*
X42490476Y10378515D02*
X42490476Y10711848D01*
X42490476Y10711848D02*
X42538095Y10902324D01*
X42538095Y10902324D02*
X42633333Y10997562D01*
X42633333Y10997562D02*
X42728571Y11045181D01*
X42728571Y11045181D02*
X42919047Y11045181D01*
X42919047Y11045181D02*
X43014285Y10997562D01*
X43014285Y10997562D02*
X43109523Y10902324D01*
X43109523Y10902324D02*
X43157142Y10711848D01*
X43157142Y10711848D02*
X43157142Y10378515D01*
X43157142Y10378515D02*
X43109523Y10188039D01*
X43109523Y10188039D02*
X43014285Y10092800D01*
X43014285Y10092800D02*
X42919047Y10045181D01*
X42919047Y10045181D02*
X42728571Y10045181D01*
X43538095Y10949943D02*
X43585714Y10997562D01*
X43585714Y10997562D02*
X43680952Y11045181D01*
X43680952Y11045181D02*
X43919047Y11045181D01*
X43919047Y11045181D02*
X44014285Y10997562D01*
X44014285Y10997562D02*
X44061904Y10949943D01*
X44061904Y10949943D02*
X44109523Y10854705D01*
X44109523Y10854705D02*
X44109523Y10759467D01*
X44109523Y10759467D02*
X44061904Y10616610D01*
X44061904Y10616610D02*
X43490476Y10045181D01*
X43490476Y10045181D02*
X44109523Y10045181D01*
X6338095Y39545181D02*
X6338095Y38735658D01*
X6338095Y38735658D02*
X6385714Y38640420D01*
X6385714Y38640420D02*
X6433333Y38592800D01*
X6433333Y38592800D02*
X6528571Y38545181D01*
X6528571Y38545181D02*
X6719047Y38545181D01*
X6719047Y38545181D02*
X6814285Y38592800D01*
X6814285Y38592800D02*
X6861904Y38640420D01*
X6861904Y38640420D02*
X6909523Y38735658D01*
X6909523Y38735658D02*
X6909523Y39545181D01*
X7814285Y39211848D02*
X7814285Y38545181D01*
X7576190Y39592800D02*
X7338095Y38878515D01*
X7338095Y38878515D02*
X7957142Y38878515D01*
X33066666Y1845181D02*
X33066666Y1130896D01*
X33066666Y1130896D02*
X33019047Y988039D01*
X33019047Y988039D02*
X32923809Y892800D01*
X32923809Y892800D02*
X32780952Y845181D01*
X32780952Y845181D02*
X32685714Y845181D01*
X34066666Y845181D02*
X33495238Y845181D01*
X33780952Y845181D02*
X33780952Y1845181D01*
X33780952Y1845181D02*
X33685714Y1702324D01*
X33685714Y1702324D02*
X33590476Y1607086D01*
X33590476Y1607086D02*
X33495238Y1559467D01*
X16559580Y52833334D02*
X16607200Y52785715D01*
X16607200Y52785715D02*
X16654819Y52642858D01*
X16654819Y52642858D02*
X16654819Y52547620D01*
X16654819Y52547620D02*
X16607200Y52404763D01*
X16607200Y52404763D02*
X16511961Y52309525D01*
X16511961Y52309525D02*
X16416723Y52261906D01*
X16416723Y52261906D02*
X16226247Y52214287D01*
X16226247Y52214287D02*
X16083390Y52214287D01*
X16083390Y52214287D02*
X15892914Y52261906D01*
X15892914Y52261906D02*
X15797676Y52309525D01*
X15797676Y52309525D02*
X15702438Y52404763D01*
X15702438Y52404763D02*
X15654819Y52547620D01*
X15654819Y52547620D02*
X15654819Y52642858D01*
X15654819Y52642858D02*
X15702438Y52785715D01*
X15702438Y52785715D02*
X15750057Y52833334D01*
X15654819Y53166668D02*
X15654819Y53785715D01*
X15654819Y53785715D02*
X16035771Y53452382D01*
X16035771Y53452382D02*
X16035771Y53595239D01*
X16035771Y53595239D02*
X16083390Y53690477D01*
X16083390Y53690477D02*
X16131009Y53738096D01*
X16131009Y53738096D02*
X16226247Y53785715D01*
X16226247Y53785715D02*
X16464342Y53785715D01*
X16464342Y53785715D02*
X16559580Y53738096D01*
X16559580Y53738096D02*
X16607200Y53690477D01*
X16607200Y53690477D02*
X16654819Y53595239D01*
X16654819Y53595239D02*
X16654819Y53309525D01*
X16654819Y53309525D02*
X16607200Y53214287D01*
X16607200Y53214287D02*
X16559580Y53166668D01*
X9554819Y4169643D02*
X9078628Y3836310D01*
X9554819Y3598215D02*
X8554819Y3598215D01*
X8554819Y3598215D02*
X8554819Y3979167D01*
X8554819Y3979167D02*
X8602438Y4074405D01*
X8602438Y4074405D02*
X8650057Y4122024D01*
X8650057Y4122024D02*
X8745295Y4169643D01*
X8745295Y4169643D02*
X8888152Y4169643D01*
X8888152Y4169643D02*
X8983390Y4122024D01*
X8983390Y4122024D02*
X9031009Y4074405D01*
X9031009Y4074405D02*
X9078628Y3979167D01*
X9078628Y3979167D02*
X9078628Y3598215D01*
X9554819Y5122024D02*
X9554819Y4550596D01*
X9554819Y4836310D02*
X8554819Y4836310D01*
X8554819Y4836310D02*
X8697676Y4741072D01*
X8697676Y4741072D02*
X8792914Y4645834D01*
X8792914Y4645834D02*
X8840533Y4550596D01*
X8650057Y5502977D02*
X8602438Y5550596D01*
X8602438Y5550596D02*
X8554819Y5645834D01*
X8554819Y5645834D02*
X8554819Y5883929D01*
X8554819Y5883929D02*
X8602438Y5979167D01*
X8602438Y5979167D02*
X8650057Y6026786D01*
X8650057Y6026786D02*
X8745295Y6074405D01*
X8745295Y6074405D02*
X8840533Y6074405D01*
X8840533Y6074405D02*
X8983390Y6026786D01*
X8983390Y6026786D02*
X9554819Y5455358D01*
X9554819Y5455358D02*
X9554819Y6074405D01*
X54666667Y41592800D02*
X54809524Y41545181D01*
X54809524Y41545181D02*
X55047619Y41545181D01*
X55047619Y41545181D02*
X55142857Y41592800D01*
X55142857Y41592800D02*
X55190476Y41640420D01*
X55190476Y41640420D02*
X55238095Y41735658D01*
X55238095Y41735658D02*
X55238095Y41830896D01*
X55238095Y41830896D02*
X55190476Y41926134D01*
X55190476Y41926134D02*
X55142857Y41973753D01*
X55142857Y41973753D02*
X55047619Y42021372D01*
X55047619Y42021372D02*
X54857143Y42068991D01*
X54857143Y42068991D02*
X54761905Y42116610D01*
X54761905Y42116610D02*
X54714286Y42164229D01*
X54714286Y42164229D02*
X54666667Y42259467D01*
X54666667Y42259467D02*
X54666667Y42354705D01*
X54666667Y42354705D02*
X54714286Y42449943D01*
X54714286Y42449943D02*
X54761905Y42497562D01*
X54761905Y42497562D02*
X54857143Y42545181D01*
X54857143Y42545181D02*
X55095238Y42545181D01*
X55095238Y42545181D02*
X55238095Y42497562D01*
X55571429Y42545181D02*
X55809524Y41545181D01*
X55809524Y41545181D02*
X56000000Y42259467D01*
X56000000Y42259467D02*
X56190476Y41545181D01*
X56190476Y41545181D02*
X56428572Y42545181D01*
X57238095Y42211848D02*
X57238095Y41545181D01*
X57000000Y42592800D02*
X56761905Y41878515D01*
X56761905Y41878515D02*
X57380952Y41878515D01*
X51159580Y2489643D02*
X51207200Y2442024D01*
X51207200Y2442024D02*
X51254819Y2299167D01*
X51254819Y2299167D02*
X51254819Y2203929D01*
X51254819Y2203929D02*
X51207200Y2061072D01*
X51207200Y2061072D02*
X51111961Y1965834D01*
X51111961Y1965834D02*
X51016723Y1918215D01*
X51016723Y1918215D02*
X50826247Y1870596D01*
X50826247Y1870596D02*
X50683390Y1870596D01*
X50683390Y1870596D02*
X50492914Y1918215D01*
X50492914Y1918215D02*
X50397676Y1965834D01*
X50397676Y1965834D02*
X50302438Y2061072D01*
X50302438Y2061072D02*
X50254819Y2203929D01*
X50254819Y2203929D02*
X50254819Y2299167D01*
X50254819Y2299167D02*
X50302438Y2442024D01*
X50302438Y2442024D02*
X50350057Y2489643D01*
X51254819Y3442024D02*
X51254819Y2870596D01*
X51254819Y3156310D02*
X50254819Y3156310D01*
X50254819Y3156310D02*
X50397676Y3061072D01*
X50397676Y3061072D02*
X50492914Y2965834D01*
X50492914Y2965834D02*
X50540533Y2870596D01*
X50588152Y4299167D02*
X51254819Y4299167D01*
X50207200Y4061072D02*
X50921485Y3822977D01*
X50921485Y3822977D02*
X50921485Y4442024D01*
X50457142Y7945181D02*
X50123809Y8421372D01*
X49885714Y7945181D02*
X49885714Y8945181D01*
X49885714Y8945181D02*
X50266666Y8945181D01*
X50266666Y8945181D02*
X50361904Y8897562D01*
X50361904Y8897562D02*
X50409523Y8849943D01*
X50409523Y8849943D02*
X50457142Y8754705D01*
X50457142Y8754705D02*
X50457142Y8611848D01*
X50457142Y8611848D02*
X50409523Y8516610D01*
X50409523Y8516610D02*
X50361904Y8468991D01*
X50361904Y8468991D02*
X50266666Y8421372D01*
X50266666Y8421372D02*
X49885714Y8421372D01*
X51409523Y7945181D02*
X50838095Y7945181D01*
X51123809Y7945181D02*
X51123809Y8945181D01*
X51123809Y8945181D02*
X51028571Y8802324D01*
X51028571Y8802324D02*
X50933333Y8707086D01*
X50933333Y8707086D02*
X50838095Y8659467D01*
X51742857Y8945181D02*
X52409523Y8945181D01*
X52409523Y8945181D02*
X51980952Y7945181D01*
X46661905Y47745181D02*
X46661905Y48745181D01*
X46661905Y48745181D02*
X46900000Y48745181D01*
X46900000Y48745181D02*
X47042857Y48697562D01*
X47042857Y48697562D02*
X47138095Y48602324D01*
X47138095Y48602324D02*
X47185714Y48507086D01*
X47185714Y48507086D02*
X47233333Y48316610D01*
X47233333Y48316610D02*
X47233333Y48173753D01*
X47233333Y48173753D02*
X47185714Y47983277D01*
X47185714Y47983277D02*
X47138095Y47888039D01*
X47138095Y47888039D02*
X47042857Y47792800D01*
X47042857Y47792800D02*
X46900000Y47745181D01*
X46900000Y47745181D02*
X46661905Y47745181D01*
X48090476Y48411848D02*
X48090476Y47745181D01*
X47852381Y48792800D02*
X47614286Y48078515D01*
X47614286Y48078515D02*
X48233333Y48078515D01*
X60554819Y24516667D02*
X61269104Y24516667D01*
X61269104Y24516667D02*
X61411961Y24469048D01*
X61411961Y24469048D02*
X61507200Y24373810D01*
X61507200Y24373810D02*
X61554819Y24230953D01*
X61554819Y24230953D02*
X61554819Y24135715D01*
X60554819Y25469048D02*
X60554819Y24992858D01*
X60554819Y24992858D02*
X61031009Y24945239D01*
X61031009Y24945239D02*
X60983390Y24992858D01*
X60983390Y24992858D02*
X60935771Y25088096D01*
X60935771Y25088096D02*
X60935771Y25326191D01*
X60935771Y25326191D02*
X60983390Y25421429D01*
X60983390Y25421429D02*
X61031009Y25469048D01*
X61031009Y25469048D02*
X61126247Y25516667D01*
X61126247Y25516667D02*
X61364342Y25516667D01*
X61364342Y25516667D02*
X61459580Y25469048D01*
X61459580Y25469048D02*
X61507200Y25421429D01*
X61507200Y25421429D02*
X61554819Y25326191D01*
X61554819Y25326191D02*
X61554819Y25088096D01*
X61554819Y25088096D02*
X61507200Y24992858D01*
X61507200Y24992858D02*
X61459580Y24945239D01*
X38357142Y16240420D02*
X38309523Y16192800D01*
X38309523Y16192800D02*
X38166666Y16145181D01*
X38166666Y16145181D02*
X38071428Y16145181D01*
X38071428Y16145181D02*
X37928571Y16192800D01*
X37928571Y16192800D02*
X37833333Y16288039D01*
X37833333Y16288039D02*
X37785714Y16383277D01*
X37785714Y16383277D02*
X37738095Y16573753D01*
X37738095Y16573753D02*
X37738095Y16716610D01*
X37738095Y16716610D02*
X37785714Y16907086D01*
X37785714Y16907086D02*
X37833333Y17002324D01*
X37833333Y17002324D02*
X37928571Y17097562D01*
X37928571Y17097562D02*
X38071428Y17145181D01*
X38071428Y17145181D02*
X38166666Y17145181D01*
X38166666Y17145181D02*
X38309523Y17097562D01*
X38309523Y17097562D02*
X38357142Y17049943D01*
X39309523Y16145181D02*
X38738095Y16145181D01*
X39023809Y16145181D02*
X39023809Y17145181D01*
X39023809Y17145181D02*
X38928571Y17002324D01*
X38928571Y17002324D02*
X38833333Y16907086D01*
X38833333Y16907086D02*
X38738095Y16859467D01*
X40166666Y17145181D02*
X39976190Y17145181D01*
X39976190Y17145181D02*
X39880952Y17097562D01*
X39880952Y17097562D02*
X39833333Y17049943D01*
X39833333Y17049943D02*
X39738095Y16907086D01*
X39738095Y16907086D02*
X39690476Y16716610D01*
X39690476Y16716610D02*
X39690476Y16335658D01*
X39690476Y16335658D02*
X39738095Y16240420D01*
X39738095Y16240420D02*
X39785714Y16192800D01*
X39785714Y16192800D02*
X39880952Y16145181D01*
X39880952Y16145181D02*
X40071428Y16145181D01*
X40071428Y16145181D02*
X40166666Y16192800D01*
X40166666Y16192800D02*
X40214285Y16240420D01*
X40214285Y16240420D02*
X40261904Y16335658D01*
X40261904Y16335658D02*
X40261904Y16573753D01*
X40261904Y16573753D02*
X40214285Y16668991D01*
X40214285Y16668991D02*
X40166666Y16716610D01*
X40166666Y16716610D02*
X40071428Y16764229D01*
X40071428Y16764229D02*
X39880952Y16764229D01*
X39880952Y16764229D02*
X39785714Y16716610D01*
X39785714Y16716610D02*
X39738095Y16668991D01*
X39738095Y16668991D02*
X39690476Y16573753D01*
X3661905Y9145181D02*
X3661905Y10145181D01*
X3661905Y10145181D02*
X3900000Y10145181D01*
X3900000Y10145181D02*
X4042857Y10097562D01*
X4042857Y10097562D02*
X4138095Y10002324D01*
X4138095Y10002324D02*
X4185714Y9907086D01*
X4185714Y9907086D02*
X4233333Y9716610D01*
X4233333Y9716610D02*
X4233333Y9573753D01*
X4233333Y9573753D02*
X4185714Y9383277D01*
X4185714Y9383277D02*
X4138095Y9288039D01*
X4138095Y9288039D02*
X4042857Y9192800D01*
X4042857Y9192800D02*
X3900000Y9145181D01*
X3900000Y9145181D02*
X3661905Y9145181D01*
X4566667Y10145181D02*
X5233333Y10145181D01*
X5233333Y10145181D02*
X4804762Y9145181D01*
D12*
%TO.C,U3*%
X37627000Y7278000D02*
X37627000Y10532000D01*
X34373000Y10532000D02*
X34373000Y7278000D01*
%TO.C,U2*%
X10338662Y14529800D02*
X9561340Y14529800D01*
X8375201Y14529800D02*
X8375201Y12650200D01*
X11524801Y12650200D02*
X11524801Y14529800D01*
%TO.C,U1*%
X26271155Y46641100D02*
X27015808Y46641100D01*
X31528955Y46641100D02*
X31528955Y47385786D01*
X31528955Y51898900D02*
X30784302Y51898900D01*
X26271155Y51898900D02*
X26271155Y51154214D01*
X26271155Y47385786D02*
X26271155Y46641100D01*
X30784302Y46641100D02*
X31528955Y46641100D01*
X31528955Y51154214D02*
X31528955Y51898900D01*
X27015808Y51898900D02*
X26271155Y51898900D01*
D13*
%TO.C,C7*%
X18035000Y35198752D02*
X18035000Y34676248D01*
X16565000Y35198752D02*
X16565000Y34676248D01*
%TO.C,J6*%
X64760000Y16570000D02*
X63430000Y16570000D01*
X68630000Y16570000D02*
X68630000Y19230000D01*
X66030000Y16570000D02*
X68630000Y16570000D01*
X66030000Y16570000D02*
X66030000Y19230000D01*
X63430000Y16570000D02*
X63430000Y17900000D01*
X66030000Y19230000D02*
X68630000Y19230000D01*
%TO.C,D2*%
X11300000Y24300000D02*
X11300000Y22340000D01*
X11300000Y22340000D02*
X12500000Y22340000D01*
X12500000Y24300000D02*
X12500000Y22340000D01*
%TO.C,R2*%
X17245276Y16422500D02*
X17754724Y16422500D01*
X17245276Y15377500D02*
X17754724Y15377500D01*
%TO.C,D12*%
X12200000Y26100000D02*
X12200000Y28060000D01*
X12200000Y28060000D02*
X11000000Y28060000D01*
X11000000Y26100000D02*
X11000000Y28060000D01*
%TO.C,D3*%
X12300000Y21100000D02*
X12300000Y19740000D01*
X11500000Y19740000D02*
X12300000Y19740000D01*
X11500000Y21100000D02*
X11500000Y19740000D01*
%TO.C,R8*%
X36522500Y46254724D02*
X36522500Y45745276D01*
X35477500Y46254724D02*
X35477500Y45745276D01*
%TO.C,C15*%
X34290000Y14953733D02*
X34290000Y15246267D01*
X35310000Y14953733D02*
X35310000Y15246267D01*
%TO.C,C4*%
X33490000Y49091233D02*
X33490000Y49383767D01*
X34510000Y49091233D02*
X34510000Y49383767D01*
%TO.C,D5*%
X43036000Y53265000D02*
X42880000Y53265000D01*
X40720000Y53265000D02*
X40564000Y53265000D01*
X42878608Y50032666D02*
G75*
G03*
X43035515Y53264999I-1078608J1672334D01*
G01*
X42879836Y50663871D02*
G75*
G03*
X42879999Y52745960I-1079836J1041129D01*
G01*
X40720001Y52745960D02*
G75*
G03*
X40720164Y50663871I1079999J-1040960D01*
G01*
X40564485Y53264999D02*
G75*
G03*
X40721392Y50032666I1235515J-1559999D01*
G01*
%TO.C,SW1*%
X52500000Y51000000D02*
X52500000Y49500000D01*
X53750000Y47000000D02*
X58250000Y47000000D01*
X58250000Y53500000D02*
X53750000Y53500000D01*
X59500000Y49500000D02*
X59500000Y51000000D01*
%TO.C,C10*%
X53510000Y36146267D02*
X53510000Y35853733D01*
X52490000Y36146267D02*
X52490000Y35853733D01*
%TO.C,J2*%
X6300000Y27810000D02*
X4300000Y27810000D01*
X2400000Y27810000D02*
X500000Y27810000D01*
X500000Y27810000D02*
X500000Y18410000D01*
X6300000Y18410000D02*
X4300000Y18410000D01*
X2400000Y18410000D02*
X500000Y18410000D01*
D12*
%TO.C,K1*%
X24254100Y17810000D02*
X24254100Y17501988D01*
X24254100Y15578012D02*
X24254100Y14961988D01*
X24254100Y13038012D02*
X24254100Y12421988D01*
X24254100Y10498012D02*
X24254100Y10190000D01*
X24254100Y10190000D02*
X31162900Y10190000D01*
X31162900Y17810000D02*
X24254100Y17810000D01*
X31162900Y17501988D02*
X31162900Y17810000D01*
X31162900Y14961988D02*
X31162900Y15578012D01*
X31162900Y12421988D02*
X31162900Y13038012D01*
X31162900Y10190000D02*
X31162900Y10498012D01*
D13*
%TO.C,R1*%
X61577500Y48645276D02*
X61577500Y49154724D01*
X62622500Y48645276D02*
X62622500Y49154724D01*
D12*
%TO.C,L1*%
X19525600Y14424200D02*
X16274400Y14424200D01*
X14775800Y12925600D02*
X14775800Y9674400D01*
X21024200Y9674400D02*
X21024200Y12925600D01*
X16274400Y8175800D02*
X19525600Y8175800D01*
D13*
%TO.C,R5*%
X16745276Y30522500D02*
X17254724Y30522500D01*
X16745276Y29477500D02*
X17254724Y29477500D01*
%TO.C,R15*%
X11180000Y8867621D02*
X11180000Y8532379D01*
X10420000Y8867621D02*
X10420000Y8532379D01*
%TO.C,R4*%
X20522500Y27254724D02*
X20522500Y26745276D01*
X19477500Y27254724D02*
X19477500Y26745276D01*
%TO.C,C17*%
X20910000Y35246267D02*
X20910000Y34953733D01*
X19890000Y35246267D02*
X19890000Y34953733D01*
%TO.C,D9*%
X22310000Y1500000D02*
X22310000Y3500000D01*
X22310000Y1500000D02*
X18450000Y1500000D01*
X22310000Y3500000D02*
X18450000Y3500000D01*
%TO.C,R14*%
X4354724Y15977500D02*
X3845276Y15977500D01*
X4354724Y17022500D02*
X3845276Y17022500D01*
%TO.C,J4*%
X67960000Y30300000D02*
X69700000Y30300000D01*
X69700000Y30300000D02*
X69700000Y31800000D01*
X62340000Y30540000D02*
X69460000Y30540000D01*
X62340000Y30540000D02*
X62340000Y38360000D01*
X67900000Y30540000D02*
X67900000Y38360000D01*
X69460000Y30540000D02*
X69460000Y38360000D01*
X62340000Y38360000D02*
X69460000Y38360000D01*
X65192000Y31268000D02*
G75*
G03*
X66407742Y31267891I608000J1432000D01*
G01*
X64368000Y33308000D02*
G75*
G03*
X64367891Y32092258I1432000J-608000D01*
G01*
X67231999Y32092000D02*
G75*
G03*
X67355492Y32727011I-1431987J607998D01*
G01*
X67354999Y32700000D02*
G75*
G03*
X67231384Y33307587I-1554999J0D01*
G01*
X66408000Y34132000D02*
G75*
G03*
X65192258Y34132109I-607999J-1432003D01*
G01*
X67355000Y36200000D02*
G75*
G03*
X67355000Y36200000I-1555000J0D01*
G01*
%TO.C,U6*%
X24600000Y43510000D02*
X43000000Y43510000D01*
X24600000Y42760000D02*
X24250000Y42760000D01*
X24600000Y42760000D02*
X24600000Y43510000D01*
X24600000Y24910000D02*
X24600000Y23910000D01*
X24600000Y23910000D02*
X26100000Y23910000D01*
X43000000Y43510000D02*
X43000000Y42810000D01*
X43000000Y23910000D02*
X41500000Y23910000D01*
X43000000Y23910000D02*
X43000000Y24910000D01*
%TO.C,R11*%
X45477500Y38657776D02*
X45477500Y39167224D01*
X46522500Y38657776D02*
X46522500Y39167224D01*
%TO.C,R13*%
X4354724Y29477500D02*
X3845276Y29477500D01*
X4354724Y30522500D02*
X3845276Y30522500D01*
%TO.C,C13*%
X19453733Y6610000D02*
X19746267Y6610000D01*
X19453733Y5590000D02*
X19746267Y5590000D01*
%TO.C,C18*%
X19246267Y38190000D02*
X18953733Y38190000D01*
X19246267Y39210000D02*
X18953733Y39210000D01*
%TO.C,C5*%
X11146267Y29490000D02*
X10853733Y29490000D01*
X11146267Y30510000D02*
X10853733Y30510000D01*
%TO.C,D1*%
X17650000Y26510000D02*
X14350000Y26510000D01*
X17650000Y26510000D02*
X17650000Y21000000D01*
X14350000Y26510000D02*
X14350000Y21000000D01*
%TO.C,R18*%
X39122500Y3054724D02*
X39122500Y2545276D01*
X38077500Y3054724D02*
X38077500Y2545276D01*
%TO.C,SW2*%
X58950000Y11700000D02*
X58950000Y10200000D01*
X60200000Y7700000D02*
X64700000Y7700000D01*
X64700000Y14200000D02*
X60200000Y14200000D01*
X65950000Y10200000D02*
X65950000Y11700000D01*
%TO.C,J3*%
X44390000Y21430000D02*
X44390000Y20100000D01*
X43060000Y21430000D02*
X44390000Y21430000D01*
X41790000Y21430000D02*
X23950000Y21430000D01*
X41790000Y21430000D02*
X41790000Y18770000D01*
X23950000Y21430000D02*
X23950000Y18770000D01*
X41790000Y18770000D02*
X23950000Y18770000D01*
%TO.C,R10*%
X47254724Y35477500D02*
X46745276Y35477500D01*
X47254724Y36522500D02*
X46745276Y36522500D01*
%TO.C,C8*%
X13653733Y18510000D02*
X13946267Y18510000D01*
X13653733Y17490000D02*
X13946267Y17490000D01*
%TO.C,R6*%
X62622500Y42354724D02*
X62622500Y41845276D01*
X61577500Y42354724D02*
X61577500Y41845276D01*
%TO.C,U5*%
X56000000Y28265000D02*
X59600000Y28265000D01*
X56000000Y28265000D02*
X53800000Y28265000D01*
X56000000Y33735000D02*
X58200000Y33735000D01*
X56000000Y33735000D02*
X53800000Y33735000D01*
%TO.C,C1*%
X24190000Y51253733D02*
X24190000Y51546267D01*
X25210000Y51253733D02*
X25210000Y51546267D01*
%TO.C,R16*%
X57077500Y25445276D02*
X57077500Y25954724D01*
X58122500Y25445276D02*
X58122500Y25954724D01*
%TO.C,R7*%
X40522500Y46254724D02*
X40522500Y45745276D01*
X39477500Y46254724D02*
X39477500Y45745276D01*
%TO.C,C11*%
X53990000Y25553733D02*
X53990000Y25846267D01*
X55010000Y25553733D02*
X55010000Y25846267D01*
%TO.C,C2*%
X56610000Y12446267D02*
X56610000Y12153733D01*
X55590000Y12446267D02*
X55590000Y12153733D01*
%TO.C,C9*%
X57146267Y34590000D02*
X56853733Y34590000D01*
X57146267Y35610000D02*
X56853733Y35610000D01*
%TO.C,SW3*%
X18150000Y50100000D02*
X16650000Y50100000D01*
X14150000Y48850000D02*
X14150000Y44350000D01*
X20650000Y44350000D02*
X20650000Y48850000D01*
X16650000Y43100000D02*
X18150000Y43100000D01*
%TO.C,C12*%
X51547500Y22037500D02*
X51547500Y21250000D01*
X51941250Y21643750D02*
X51153750Y21643750D01*
X52045563Y21010000D02*
X50760000Y21010000D01*
X52045563Y21010000D02*
X53110000Y19945563D01*
X47354437Y21010000D02*
X48640000Y21010000D01*
X47354437Y21010000D02*
X46290000Y19945563D01*
X53110000Y19945563D02*
X53110000Y14190000D01*
X46290000Y19945563D02*
X46290000Y14190000D01*
X53110000Y14190000D02*
X50760000Y14190000D01*
X46290000Y14190000D02*
X48640000Y14190000D01*
%TO.C,D8*%
X49650000Y33510000D02*
X46350000Y33510000D01*
X49650000Y33510000D02*
X49650000Y28000000D01*
X46350000Y33510000D02*
X46350000Y28000000D01*
%TO.C,D10*%
X42610000Y4436000D02*
X42610000Y4280000D01*
X42610000Y2120000D02*
X42610000Y1964000D01*
X45842334Y4278608D02*
G75*
G03*
X42610001Y4435515I-1672334J-1078608D01*
G01*
X45211129Y4279836D02*
G75*
G03*
X43129040Y4279999I-1041129J-1079836D01*
G01*
X43129040Y2120001D02*
G75*
G03*
X45211129Y2120164I1040960J1079999D01*
G01*
X42610001Y1964485D02*
G75*
G03*
X45842334Y2121392I1559999J1235515D01*
G01*
%TO.C,R3*%
X21977500Y51845276D02*
X21977500Y52354724D01*
X23022500Y51845276D02*
X23022500Y52354724D01*
%TO.C,R9*%
X18577500Y18645276D02*
X18577500Y19154724D01*
X19622500Y18645276D02*
X19622500Y19154724D01*
%TO.C,C20*%
X14610000Y35283767D02*
X14610000Y34991233D01*
X13590000Y35283767D02*
X13590000Y34991233D01*
%TO.C,C19*%
X21510000Y31146267D02*
X21510000Y30853733D01*
X20490000Y31146267D02*
X20490000Y30853733D01*
D14*
%TO.C,Q2*%
X41350000Y13025000D02*
X45250000Y13025000D01*
X41350000Y7975000D02*
X45250000Y7975000D01*
D15*
X39115000Y13005000D02*
G75*
G03*
X39115000Y13005000I-100000J0D01*
G01*
D13*
%TO.C,U4*%
X1980000Y53050000D02*
X1980000Y37160000D01*
X1980000Y53050000D02*
X12220000Y53050000D01*
X1980000Y37160000D02*
X12220000Y37160000D01*
X4560000Y37160000D02*
X4560000Y34620000D01*
X7100000Y37160000D02*
X7100000Y34620000D01*
X9640000Y37160000D02*
X9640000Y34620000D01*
X12220000Y53050000D02*
X12220000Y37160000D01*
%TO.C,J1*%
X31860000Y722500D02*
X24140000Y722500D01*
X31860000Y1942500D02*
X30640000Y1942500D01*
X31860000Y9142500D02*
X31860000Y722500D01*
X30640000Y1942500D02*
X30640000Y6942500D01*
X30640000Y5942500D02*
X25360000Y5942500D01*
X30640000Y6942500D02*
X31860000Y6942500D01*
X30640000Y6942500D02*
X30640000Y9142500D01*
X30640000Y9142500D02*
X31860000Y9142500D01*
X29570000Y2522500D02*
X29250000Y2442500D01*
X29570000Y5942500D02*
X29570000Y2522500D01*
X29550000Y9632500D02*
X28950000Y9632500D01*
X29250000Y2442500D02*
X28930000Y2522500D01*
X29250000Y5942500D02*
X29570000Y5942500D01*
X29250000Y9032500D02*
X29550000Y9632500D01*
X28950000Y9632500D02*
X29250000Y9032500D01*
X28930000Y2522500D02*
X28930000Y5942500D01*
X28930000Y5942500D02*
X29250000Y5942500D01*
X28080000Y6942500D02*
X27920000Y6942500D01*
X27070000Y2522500D02*
X26750000Y2442500D01*
X27070000Y5942500D02*
X27070000Y2522500D01*
X26750000Y2442500D02*
X26430000Y2522500D01*
X26750000Y5942500D02*
X27070000Y5942500D01*
X26430000Y2522500D02*
X26430000Y5942500D01*
X26430000Y5942500D02*
X26750000Y5942500D01*
X25360000Y1942500D02*
X25360000Y6942500D01*
X25360000Y6942500D02*
X24140000Y6942500D01*
X25360000Y9142500D02*
X25360000Y6942500D01*
X24140000Y722500D02*
X24140000Y9142500D01*
X24140000Y1942500D02*
X25360000Y1942500D01*
X24140000Y9142500D02*
X25360000Y9142500D01*
%TO.C,C3*%
X18846267Y52490000D02*
X18553733Y52490000D01*
X18846267Y53510000D02*
X18553733Y53510000D01*
%TO.C,R12*%
X11322500Y5054724D02*
X11322500Y4545276D01*
X10277500Y5054724D02*
X10277500Y4545276D01*
%TO.C,SW4*%
X52500000Y42750000D02*
X52500000Y41250000D01*
X53750000Y38750000D02*
X58250000Y38750000D01*
X58250000Y45250000D02*
X53750000Y45250000D01*
X59500000Y41250000D02*
X59500000Y42750000D01*
%TO.C,C14*%
X48690000Y2891233D02*
X48690000Y3183767D01*
X49710000Y2891233D02*
X49710000Y3183767D01*
%TO.C,R17*%
X51354724Y6377500D02*
X50845276Y6377500D01*
X51354724Y7422500D02*
X50845276Y7422500D01*
%TO.C,D4*%
X48636000Y53265000D02*
X48480000Y53265000D01*
X46320000Y53265000D02*
X46164000Y53265000D01*
X48478608Y50032666D02*
G75*
G03*
X48635515Y53264999I-1078608J1672334D01*
G01*
X48479836Y50663871D02*
G75*
G03*
X48479999Y52745960I-1079836J1041129D01*
G01*
X46320001Y52745960D02*
G75*
G03*
X46320164Y50663871I1079999J-1040960D01*
G01*
X46164485Y53264999D02*
G75*
G03*
X46321392Y50032666I1235515J-1559999D01*
G01*
%TO.C,J5*%
X67960000Y20700000D02*
X69700000Y20700000D01*
X69700000Y20700000D02*
X69700000Y22200000D01*
X62340000Y20940000D02*
X69460000Y20940000D01*
X62340000Y20940000D02*
X62340000Y28760000D01*
X67900000Y20940000D02*
X67900000Y28760000D01*
X69460000Y20940000D02*
X69460000Y28760000D01*
X62340000Y28760000D02*
X69460000Y28760000D01*
X65192000Y21668000D02*
G75*
G03*
X66407742Y21667891I608000J1432000D01*
G01*
X64368000Y23708000D02*
G75*
G03*
X64367891Y22492258I1432000J-608000D01*
G01*
X67231999Y22492000D02*
G75*
G03*
X67355492Y23127011I-1431987J607998D01*
G01*
X67354999Y23100000D02*
G75*
G03*
X67231384Y23707587I-1554999J0D01*
G01*
X66408000Y24532000D02*
G75*
G03*
X65192258Y24532109I-607999J-1432003D01*
G01*
X67355000Y26600000D02*
G75*
G03*
X67355000Y26600000I-1555000J0D01*
G01*
%TO.C,C16*%
X38853733Y15510000D02*
X39146267Y15510000D01*
X38853733Y14490000D02*
X39146267Y14490000D01*
%TO.C,D7*%
X2190000Y12800000D02*
X2190000Y10800000D01*
X2190000Y12800000D02*
X6050000Y12800000D01*
X2190000Y10800000D02*
X6050000Y10800000D01*
%TD*%
M02*
